<?xml version="1.0" encoding="UTF-8"?>
<!DOCTYPE svg PUBLIC "-//W3C//DTD SVG 1.1//EN"
    "http://www.w3.org/Graphics/SVG/1.1/DTD/svg11.dtd">
<svg xmlns="http://www.w3.org/2000/svg" xmlns:xlink="http://www.w3.org/1999/xlink" version="1.1" width="800.0" height="965.7495411899193" font-size="1" viewBox="0 0 800 966" stroke="rgb(0,0,0)" stroke-opacity="1"><g><g fill="rgb(0,0,0)" fill-opacity="0.0"><g stroke="rgb(0,0,0)" stroke-opacity="1.0" stroke-width="3.5159058757638793" stroke-linecap="butt" stroke-linejoin="miter" font-size="1.0em" stroke-miterlimit="10.0"><g><g><path d="M 800.0,20.994555243259025 c -11.594972690332135,6.694360604009617 -15.567703726056616,21.5207946741391 -8.873343122047 33.11576736447123c 2.1277171327255906,3.685314178015491 5.188028944031503,6.745625989321406 8.873343122046991 8.873343122046998" /></g><path d="M 763.6363636363636,-9.237055564881302e-14 v 83.97822097303647 " /><g><path d="M 727.2727272727273,62.98366572977726 c 11.594972690332135,-6.694360604009619 15.567703726056614,-21.520794674139104 8.873343122046997 -33.11576736447123c -2.127717132725591,-3.6853141780154908 -5.188028944031504,-6.745625989321405 -8.873343122046993 -8.873343122046997" /></g></g><g><g><path d="M 763.6363636363636,167.95644194607289 c 6.217248937900877e-15,-13.388721208019234 -10.853703034404994,-24.24242424242425 -24.24242424242422 -24.242424242424253c -4.255434265451178,2.220446049250313e-16 -8.435897943196625,1.1201518664395302 -12.12121212121212 3.2478689991651137" /></g><path d="M 800.0,146.96188670281379 l -72.72727272727269,-41.98911048651827 " /><g><path d="M 763.6363636363636,83.97822097303641 c -6.217248937900877e-15,13.388721208019234 10.853703034404994,24.242424242424246 24.24242424242422 24.24242424242425c 4.255434265451177,-4.440892098500626e-16 8.435897943196625,-1.1201518664395307 12.12121212121212 -3.2478689991651146" /></g></g><g><g><path d="M 763.6363636363636,251.9346629191093 c 6.217248937900877e-15,-13.388721208019234 -10.853703034404994,-24.24242424242425 -24.24242424242422 -24.242424242424253c -4.255434265451178,2.220446049250313e-16 -8.435897943196625,1.1201518664395302 -12.12121212121212 3.2478689991651137" /></g><path d="M 800.0,230.9401076758502 l -72.72727272727269,-41.98911048651827 " /><g><path d="M 763.6363636363636,167.95644194607283 c -6.217248937900877e-15,13.388721208019234 10.853703034404994,24.242424242424246 24.24242424242422 24.24242424242425c 4.255434265451177,-4.440892098500626e-16 8.435897943196625,-1.1201518664395307 12.12121212121212 -3.2478689991651146" /></g></g><g><g><path d="M 800.0,272.92921816236844 c -11.594972690332135,6.694360604009617 -15.567703726056616,21.5207946741391 -8.873343122047 33.11576736447123c 2.1277171327255906,3.685314178015491 5.188028944031503,6.745625989321406 8.873343122046991 8.873343122046998" /></g><path d="M 763.6363636363636,251.93466291910934 v 83.97822097303647 " /><g><path d="M 727.2727272727273,314.9183286488867 c 11.594972690332135,-6.694360604009619 15.567703726056614,-21.520794674139104 8.873343122046997 -33.11576736447123c -2.127717132725591,-3.6853141780154908 -5.188028944031504,-6.745625989321405 -8.873343122046993 -8.873343122046997" /></g></g><g><g><path d="M 800.0,356.90743913540484 c -11.594972690332135,6.694360604009617 -15.567703726056616,21.5207946741391 -8.873343122047 33.11576736447123c 2.1277171327255906,3.685314178015491 5.188028944031503,6.745625989321406 8.873343122046991 8.873343122046998" /></g><path d="M 763.6363636363636,335.9128838921457 v 83.97822097303647 " /><g><path d="M 727.2727272727273,398.8965496219231 c 11.594972690332135,-6.694360604009619 15.567703726056614,-21.520794674139104 8.873343122046997 -33.11576736447123c -2.127717132725591,-3.6853141780154908 -5.188028944031504,-6.745625989321405 -8.873343122046993 -8.873343122046997" /></g></g><g><g><path d="M 763.6363636363636,503.8693258382187 c 6.217248937900877e-15,-13.388721208019234 -10.853703034404994,-24.24242424242425 -24.24242424242422 -24.242424242424253c -4.255434265451178,2.220446049250313e-16 -8.435897943196625,1.1201518664395302 -12.12121212121212 3.2478689991651137" /></g><path d="M 800.0,482.8747705949596 l -72.72727272727269,-41.98911048651827 " /><g><path d="M 763.6363636363636,419.8911048651823 c -6.217248937900877e-15,13.388721208019234 10.853703034404994,24.242424242424246 24.24242424242422 24.24242424242425c 4.255434265451177,-4.440892098500626e-16 8.435897943196625,-1.1201518664395307 12.12121212121212 -3.2478689991651146" /></g></g><g><g><path d="M 727.2727272727273,524.8638810814778 c 11.594972690332133,6.69436060400962 26.42140676046162,2.7216295682851452 33.11576736447124 -8.873343122046983c 2.1277171327255875,-3.6853141780154925 3.247868999165124,-7.865777855760939 3.247868999165129 -12.121212121212116" /></g><path d="M 727.2727272727273,566.852991567996 l 72.72727272727273,-41.989110486518214 " /><g><path d="M 800.0,566.852991567996 c -11.594972690332135,-6.694360604009619 -26.42140676046162,-2.7216295682851435 -33.11576736447124 8.873343122046986c -2.1277171327255875,3.685314178015493 -3.2478689991651235,7.865777855760939 -3.247868999165128 12.121212121212118" /></g></g><g><g><path d="M 727.2727272727273,608.8421020545143 c 11.594972690332133,6.69436060400962 26.42140676046162,2.7216295682851452 33.11576736447124 -8.873343122046983c 2.1277171327255875,-3.6853141780154925 3.247868999165124,-7.865777855760939 3.247868999165129 -12.121212121212116" /></g><path d="M 727.2727272727273,650.8312125410325 l 72.72727272727273,-41.989110486518214 " /><g><path d="M 800.0,650.8312125410325 c -11.594972690332135,-6.694360604009619 -26.42140676046162,-2.7216295682851435 -33.11576736447124 8.873343122046986c -2.1277171327255875,3.685314178015493 -3.2478689991651235,7.865777855760939 -3.247868999165128 12.121212121212118" /></g></g><g><g><path d="M 763.6363636363636,755.8039887573282 c 6.217248937900877e-15,-13.388721208019234 -10.853703034404994,-24.24242424242425 -24.24242424242422 -24.242424242424253c -4.255434265451178,2.220446049250313e-16 -8.435897943196625,1.1201518664395302 -12.12121212121212 3.2478689991651137" /></g><path d="M 800.0,734.809433514069 l -72.72727272727269,-41.98911048651827 " /><g><path d="M 763.6363636363636,671.8257677842917 c -6.217248937900877e-15,13.388721208019234 10.853703034404994,24.242424242424246 24.24242424242422 24.24242424242425c 4.255434265451177,-4.440892098500626e-16 8.435897943196625,-1.1201518664395307 12.12121212121212 -3.2478689991651146" /></g></g><g><g><path d="M 727.2727272727273,776.7985440005872 c 11.594972690332133,6.69436060400962 26.42140676046162,2.7216295682851452 33.11576736447124 -8.873343122046983c 2.1277171327255875,-3.6853141780154925 3.247868999165124,-7.865777855760939 3.247868999165129 -12.121212121212116" /></g><path d="M 727.2727272727273,818.7876544871054 l 72.72727272727273,-41.989110486518214 " /><g><path d="M 800.0,818.7876544871054 c -11.594972690332135,-6.694360604009619 -26.42140676046162,-2.7216295682851435 -33.11576736447124 8.873343122046986c -2.1277171327255875,3.685314178015493 -3.2478689991651235,7.865777855760939 -3.247868999165128 12.121212121212118" /></g></g><g><g><path d="M 763.6363636363636,923.7604307034011 c 6.217248937900877e-15,-13.388721208019234 -10.853703034404994,-24.24242424242425 -24.24242424242422 -24.242424242424253c -4.255434265451178,2.220446049250313e-16 -8.435897943196625,1.1201518664395302 -12.12121212121212 3.2478689991651137" /></g><path d="M 800.0,902.765875460142 l -72.72727272727269,-41.98911048651827 " /><g><path d="M 763.6363636363636,839.7822097303646 c -6.217248937900877e-15,13.388721208019234 10.853703034404994,24.242424242424246 24.24242424242422 24.24242424242425c 4.255434265451177,-4.440892098500626e-16 8.435897943196625,-1.1201518664395307 12.12121212121212 -3.2478689991651146" /></g></g><g><g><path d="M 727.2727272727273,62.983665729777286 c -11.594972690332135,6.694360604009617 -15.567703726056616,21.5207946741391 -8.873343122047 33.11576736447123c 2.1277171327255906,3.685314178015491 5.188028944031503,6.745625989321406 8.873343122046991 8.873343122046998" /></g><path d="M 690.9090909090909,41.989110486518165 v 83.97822097303647 " /><g><path d="M 654.5454545454545,104.97277621629551 c 11.594972690332135,-6.694360604009619 15.567703726056614,-21.520794674139104 8.873343122046997 -33.11576736447123c -2.127717132725591,-3.6853141780154908 -5.188028944031504,-6.745625989321405 -8.873343122046993 -8.873343122046997" /></g></g><g><g><path d="M 690.9090909090909,209.94555243259103 c 6.217248937900877e-15,-13.388721208019234 -10.853703034404994,-24.24242424242425 -24.24242424242422 -24.242424242424253c -4.255434265451178,2.220446049250313e-16 -8.435897943196625,1.1201518664395302 -12.12121212121212 3.2478689991651137" /></g><path d="M 727.2727272727273,188.95099718933193 l -72.72727272727269,-41.98911048651827 " /><g><path d="M 690.9090909090909,125.96733145955456 c -6.217248937900877e-15,13.388721208019234 10.853703034404994,24.242424242424246 24.24242424242422 24.24242424242425c 4.255434265451177,-4.440892098500626e-16 8.435897943196625,-1.1201518664395307 12.12121212121212 -3.2478689991651146" /></g></g><g><g><path d="M 727.2727272727273,230.9401076758502 c -11.594972690332135,6.694360604009617 -15.567703726056616,21.5207946741391 -8.873343122047 33.11576736447123c 2.1277171327255906,3.685314178015491 5.188028944031503,6.745625989321406 8.873343122046991 8.873343122046998" /></g><path d="M 690.9090909090909,209.9455524325911 v 83.97822097303647 " /><g><path d="M 654.5454545454545,272.92921816236844 c 11.594972690332135,-6.694360604009619 15.567703726056614,-21.520794674139104 8.873343122046997 -33.11576736447123c -2.127717132725591,-3.6853141780154908 -5.188028944031504,-6.745625989321405 -8.873343122046993 -8.873343122046997" /></g></g><g><g><path d="M 654.5454545454545,314.9183286488867 c 11.594972690332133,6.69436060400962 26.42140676046162,2.7216295682851452 33.11576736447124 -8.873343122046983c 2.1277171327255875,-3.6853141780154925 3.247868999165124,-7.865777855760939 3.247868999165129 -12.121212121212116" /></g><path d="M 654.5454545454545,356.90743913540496 l 72.72727272727273,-41.989110486518214 " /><g><path d="M 727.2727272727273,356.90743913540496 c -11.594972690332135,-6.694360604009619 -26.42140676046162,-2.7216295682851435 -33.11576736447124 8.873343122046986c -2.1277171327255875,3.685314178015493 -3.2478689991651235,7.865777855760939 -3.247868999165128 12.121212121212118" /></g></g><g><g><path d="M 690.9090909090909,461.88021535170043 c 6.217248937900877e-15,-13.388721208019234 -10.853703034404994,-24.24242424242425 -24.24242424242422 -24.242424242424253c -4.255434265451178,2.220446049250313e-16 -8.435897943196625,1.1201518664395302 -12.12121212121212 3.2478689991651137" /></g><path d="M 727.2727272727273,440.88566010844136 l -72.72727272727269,-41.98911048651827 " /><g><path d="M 690.9090909090909,377.901994378664 c -6.217248937900877e-15,13.388721208019234 10.853703034404994,24.242424242424246 24.24242424242422 24.24242424242425c 4.255434265451177,-4.440892098500626e-16 8.435897943196625,-1.1201518664395307 12.12121212121212 -3.2478689991651146" /></g></g><g><g><path d="M 654.5454545454545,482.8747705949596 c 11.594972690332133,6.69436060400962 26.42140676046162,2.7216295682851452 33.11576736447124 -8.873343122046983c 2.1277171327255875,-3.6853141780154925 3.247868999165124,-7.865777855760939 3.247868999165129 -12.121212121212116" /></g><path d="M 654.5454545454545,524.8638810814779 l 72.72727272727273,-41.989110486518214 " /><g><path d="M 727.2727272727273,524.8638810814779 c -11.594972690332135,-6.694360604009619 -26.42140676046162,-2.7216295682851435 -33.11576736447124 8.873343122046986c -2.1277171327255875,3.685314178015493 -3.2478689991651235,7.865777855760939 -3.247868999165128 12.121212121212118" /></g></g><g><g><path d="M 727.2727272727273,566.852991567996 c -11.594972690332135,6.694360604009617 -15.567703726056616,21.5207946741391 -8.873343122047 33.11576736447123c 2.1277171327255906,3.685314178015491 5.188028944031503,6.745625989321406 8.873343122046991 8.873343122046998" /></g><path d="M 690.9090909090909,545.8584363247369 v 83.97822097303647 " /><g><path d="M 654.5454545454545,608.8421020545143 c 11.594972690332135,-6.694360604009619 15.567703726056614,-21.520794674139104 8.873343122046997 -33.11576736447123c -2.127717132725591,-3.6853141780154908 -5.188028944031504,-6.745625989321405 -8.873343122046993 -8.873343122046997" /></g></g><g><g><path d="M 690.9090909090909,713.8148782708099 c 6.217248937900877e-15,-13.388721208019234 -10.853703034404994,-24.24242424242425 -24.24242424242422 -24.242424242424253c -4.255434265451178,2.220446049250313e-16 -8.435897943196625,1.1201518664395302 -12.12121212121212 3.2478689991651137" /></g><path d="M 727.2727272727273,692.8203230275508 l -72.72727272727269,-41.98911048651827 " /><g><path d="M 690.9090909090909,629.8366572977734 c -6.217248937900877e-15,13.388721208019234 10.853703034404994,24.242424242424246 24.24242424242422 24.24242424242425c 4.255434265451177,-4.440892098500626e-16 8.435897943196625,-1.1201518664395307 12.12121212121212 -3.2478689991651146" /></g></g><g><g><path d="M 727.2727272727273,734.809433514069 c -11.594972690332135,6.694360604009617 -15.567703726056616,21.5207946741391 -8.873343122047 33.11576736447123c 2.1277171327255906,3.685314178015491 5.188028944031503,6.745625989321406 8.873343122046991 8.873343122046998" /></g><path d="M 690.9090909090909,713.8148782708099 v 83.97822097303647 " /><g><path d="M 654.5454545454545,776.7985440005873 c 11.594972690332135,-6.694360604009619 15.567703726056614,-21.520794674139104 8.873343122046997 -33.11576736447123c -2.127717132725591,-3.6853141780154908 -5.188028944031504,-6.745625989321405 -8.873343122046993 -8.873343122046997" /></g></g><g><g><path d="M 654.5454545454545,818.7876544871054 c 11.594972690332133,6.69436060400962 26.42140676046162,2.7216295682851452 33.11576736447124 -8.873343122046983c 2.1277171327255875,-3.6853141780154925 3.247868999165124,-7.865777855760939 3.247868999165129 -12.121212121212116" /></g><path d="M 654.5454545454545,860.7767649736237 l 72.72727272727273,-41.989110486518214 " /><g><path d="M 727.2727272727273,860.7767649736237 c -11.594972690332135,-6.694360604009619 -26.42140676046162,-2.7216295682851435 -33.11576736447124 8.873343122046986c -2.1277171327255875,3.685314178015493 -3.2478689991651235,7.865777855760939 -3.247868999165128 12.121212121212118" /></g></g><g><g><path d="M 727.2727272727273,902.765875460142 c -11.594972690332135,6.694360604009617 -15.567703726056616,21.5207946741391 -8.873343122047 33.11576736447123c 2.1277171327255906,3.685314178015491 5.188028944031503,6.745625989321406 8.873343122046991 8.873343122046998" /></g><path d="M 690.9090909090909,881.7713202168828 v 83.97822097303647 " /><g><path d="M 654.5454545454545,944.7549859466602 c 11.594972690332135,-6.694360604009619 15.567703726056614,-21.520794674139104 8.873343122046997 -33.11576736447123c -2.127717132725591,-3.6853141780154908 -5.188028944031504,-6.745625989321405 -8.873343122046993 -8.873343122046997" /></g></g><g><g><path d="M 654.5454545454545,20.994555243259025 c -11.594972690332135,6.694360604009617 -15.567703726056616,21.5207946741391 -8.873343122047 33.11576736447123c 2.1277171327255906,3.685314178015491 5.188028944031503,6.745625989321406 8.873343122046991 8.873343122046998" /></g><path d="M 618.1818181818181,-9.237055564881302e-14 v 83.97822097303647 " /><g><path d="M 581.8181818181818,62.98366572977726 c 11.594972690332135,-6.694360604009619 15.567703726056614,-21.520794674139104 8.873343122046997 -33.11576736447123c -2.127717132725591,-3.6853141780154908 -5.188028944031504,-6.745625989321405 -8.873343122046993 -8.873343122046997" /></g></g><g><g><path d="M 618.1818181818181,167.95644194607289 c 6.217248937900877e-15,-13.388721208019234 -10.853703034404994,-24.24242424242425 -24.24242424242422 -24.242424242424253c -4.255434265451178,2.220446049250313e-16 -8.435897943196625,1.1201518664395302 -12.12121212121212 3.2478689991651137" /></g><path d="M 654.5454545454545,146.96188670281379 l -72.72727272727269,-41.98911048651827 " /><g><path d="M 618.1818181818181,83.97822097303641 c -6.217248937900877e-15,13.388721208019234 10.853703034404994,24.242424242424246 24.24242424242422 24.24242424242425c 4.255434265451177,-4.440892098500626e-16 8.435897943196625,-1.1201518664395307 12.12121212121212 -3.2478689991651146" /></g></g><g><g><path d="M 618.1818181818181,251.9346629191093 c 6.217248937900877e-15,-13.388721208019234 -10.853703034404994,-24.24242424242425 -24.24242424242422 -24.242424242424253c -4.255434265451178,2.220446049250313e-16 -8.435897943196625,1.1201518664395302 -12.12121212121212 3.2478689991651137" /></g><path d="M 654.5454545454545,230.9401076758502 l -72.72727272727269,-41.98911048651827 " /><g><path d="M 618.1818181818181,167.95644194607283 c -6.217248937900877e-15,13.388721208019234 10.853703034404994,24.242424242424246 24.24242424242422 24.24242424242425c 4.255434265451177,-4.440892098500626e-16 8.435897943196625,-1.1201518664395307 12.12121212121212 -3.2478689991651146" /></g></g><g><g><path d="M 618.1818181818181,335.91288389214577 c 6.217248937900877e-15,-13.388721208019234 -10.853703034404994,-24.24242424242425 -24.24242424242422 -24.242424242424253c -4.255434265451178,2.220446049250313e-16 -8.435897943196625,1.1201518664395302 -12.12121212121212 3.2478689991651137" /></g><path d="M 654.5454545454545,314.9183286488867 l -72.72727272727269,-41.98911048651827 " /><g><path d="M 618.1818181818181,251.93466291910934 c -6.217248937900877e-15,13.388721208019234 10.853703034404994,24.242424242424246 24.24242424242422 24.24242424242425c 4.255434265451177,-4.440892098500626e-16 8.435897943196625,-1.1201518664395307 12.12121212121212 -3.2478689991651146" /></g></g><g><g><path d="M 618.1818181818181,419.8911048651822 c 6.217248937900877e-15,-13.388721208019234 -10.853703034404994,-24.24242424242425 -24.24242424242422 -24.242424242424253c -4.255434265451178,2.220446049250313e-16 -8.435897943196625,1.1201518664395302 -12.12121212121212 3.2478689991651137" /></g><path d="M 654.5454545454545,398.8965496219231 l -72.72727272727269,-41.98911048651827 " /><g><path d="M 618.1818181818181,335.91288389214577 c -6.217248937900877e-15,13.388721208019234 10.853703034404994,24.242424242424246 24.24242424242422 24.24242424242425c 4.255434265451177,-4.440892098500626e-16 8.435897943196625,-1.1201518664395307 12.12121212121212 -3.2478689991651146" /></g></g><g><g><path d="M 581.8181818181818,440.88566010844136 c 11.594972690332133,6.69436060400962 26.42140676046162,2.7216295682851452 33.11576736447124 -8.873343122046983c 2.1277171327255875,-3.6853141780154925 3.247868999165124,-7.865777855760939 3.247868999165129 -12.121212121212116" /></g><path d="M 581.8181818181818,482.8747705949596 l 72.72727272727273,-41.989110486518214 " /><g><path d="M 654.5454545454545,482.8747705949596 c -11.594972690332135,-6.694360604009619 -26.42140676046162,-2.7216295682851435 -33.11576736447124 8.873343122046986c -2.1277171327255875,3.685314178015493 -3.2478689991651235,7.865777855760939 -3.247868999165128 12.121212121212118" /></g></g><g><g><path d="M 654.5454545454545,524.8638810814778 c -11.594972690332135,6.694360604009617 -15.567703726056616,21.5207946741391 -8.873343122047 33.11576736447123c 2.1277171327255906,3.685314178015491 5.188028944031503,6.745625989321406 8.873343122046991 8.873343122046998" /></g><path d="M 618.1818181818181,503.86932583821863 v 83.97822097303647 " /><g><path d="M 581.8181818181818,566.852991567996 c 11.594972690332135,-6.694360604009619 15.567703726056614,-21.520794674139104 8.873343122046997 -33.11576736447123c -2.127717132725591,-3.6853141780154908 -5.188028944031504,-6.745625989321405 -8.873343122046993 -8.873343122046997" /></g></g><g><g><path d="M 581.8181818181818,608.8421020545143 c 11.594972690332133,6.69436060400962 26.42140676046162,2.7216295682851452 33.11576736447124 -8.873343122046983c 2.1277171327255875,-3.6853141780154925 3.247868999165124,-7.865777855760939 3.247868999165129 -12.121212121212116" /></g><path d="M 581.8181818181818,650.8312125410325 l 72.72727272727273,-41.989110486518214 " /><g><path d="M 654.5454545454545,650.8312125410325 c -11.594972690332135,-6.694360604009619 -26.42140676046162,-2.7216295682851435 -33.11576736447124 8.873343122046986c -2.1277171327255875,3.685314178015493 -3.2478689991651235,7.865777855760939 -3.247868999165128 12.121212121212118" /></g></g><g><g><path d="M 581.8181818181818,692.8203230275508 c 11.594972690332133,6.69436060400962 26.42140676046162,2.7216295682851452 33.11576736447124 -8.873343122046983c 2.1277171327255875,-3.6853141780154925 3.247868999165124,-7.865777855760939 3.247868999165129 -12.121212121212116" /></g><path d="M 581.8181818181818,734.809433514069 l 72.72727272727273,-41.989110486518214 " /><g><path d="M 654.5454545454545,734.809433514069 c -11.594972690332135,-6.694360604009619 -26.42140676046162,-2.7216295682851435 -33.11576736447124 8.873343122046986c -2.1277171327255875,3.685314178015493 -3.2478689991651235,7.865777855760939 -3.247868999165128 12.121212121212118" /></g></g><g><g><path d="M 581.8181818181818,776.7985440005872 c 11.594972690332133,6.69436060400962 26.42140676046162,2.7216295682851452 33.11576736447124 -8.873343122046983c 2.1277171327255875,-3.6853141780154925 3.247868999165124,-7.865777855760939 3.247868999165129 -12.121212121212116" /></g><path d="M 581.8181818181818,818.7876544871054 l 72.72727272727273,-41.989110486518214 " /><g><path d="M 654.5454545454545,818.7876544871054 c -11.594972690332135,-6.694360604009619 -26.42140676046162,-2.7216295682851435 -33.11576736447124 8.873343122046986c -2.1277171327255875,3.685314178015493 -3.2478689991651235,7.865777855760939 -3.247868999165128 12.121212121212118" /></g></g><g><g><path d="M 581.8181818181818,860.7767649736237 c 11.594972690332133,6.69436060400962 26.42140676046162,2.7216295682851452 33.11576736447124 -8.873343122046983c 2.1277171327255875,-3.6853141780154925 3.247868999165124,-7.865777855760939 3.247868999165129 -12.121212121212116" /></g><path d="M 581.8181818181818,902.765875460142 l 72.72727272727273,-41.989110486518214 " /><g><path d="M 654.5454545454545,902.765875460142 c -11.594972690332135,-6.694360604009619 -26.42140676046162,-2.7216295682851435 -33.11576736447124 8.873343122046986c -2.1277171327255875,3.685314178015493 -3.2478689991651235,7.865777855760939 -3.247868999165128 12.121212121212118" /></g></g><g><g><path d="M 509.0909090909091,62.98366572977727 c 11.594972690332133,6.69436060400962 26.42140676046162,2.7216295682851452 33.11576736447124 -8.873343122046983c 2.1277171327255875,-3.6853141780154925 3.247868999165124,-7.865777855760939 3.247868999165129 -12.121212121212116" /></g><path d="M 509.0909090909091,104.9727762162955 l 72.72727272727273,-41.989110486518214 " /><g><path d="M 581.8181818181819,104.97277621629553 c -11.594972690332135,-6.694360604009619 -26.42140676046162,-2.7216295682851435 -33.11576736447124 8.873343122046986c -2.1277171327255875,3.685314178015493 -3.2478689991651235,7.865777855760939 -3.247868999165128 12.121212121212118" /></g></g><g><g><path d="M 545.4545454545455,209.94555243259103 c 6.217248937900877e-15,-13.388721208019234 -10.853703034404994,-24.24242424242425 -24.24242424242422 -24.242424242424253c -4.255434265451178,2.220446049250313e-16 -8.435897943196625,1.1201518664395302 -12.12121212121212 3.2478689991651137" /></g><path d="M 581.8181818181819,188.95099718933193 l -72.72727272727269,-41.98911048651827 " /><g><path d="M 545.4545454545455,125.96733145955456 c -6.217248937900877e-15,13.388721208019234 10.853703034404994,24.242424242424246 24.24242424242422 24.24242424242425c 4.255434265451177,-4.440892098500626e-16 8.435897943196625,-1.1201518664395307 12.12121212121212 -3.2478689991651146" /></g></g><g><g><path d="M 545.4545454545455,293.9237734056275 c 6.217248937900877e-15,-13.388721208019234 -10.853703034404994,-24.24242424242425 -24.24242424242422 -24.242424242424253c -4.255434265451178,2.220446049250313e-16 -8.435897943196625,1.1201518664395302 -12.12121212121212 3.2478689991651137" /></g><path d="M 581.8181818181819,272.92921816236844 l -72.72727272727269,-41.98911048651827 " /><g><path d="M 545.4545454545455,209.9455524325911 c -6.217248937900877e-15,13.388721208019234 10.853703034404994,24.242424242424246 24.24242424242422 24.24242424242425c 4.255434265451177,-4.440892098500626e-16 8.435897943196625,-1.1201518664395307 12.12121212121212 -3.2478689991651146" /></g></g><g><g><path d="M 545.4545454545455,377.901994378664 c 6.217248937900877e-15,-13.388721208019234 -10.853703034404994,-24.24242424242425 -24.24242424242422 -24.242424242424253c -4.255434265451178,2.220446049250313e-16 -8.435897943196625,1.1201518664395302 -12.12121212121212 3.2478689991651137" /></g><path d="M 581.8181818181819,356.90743913540496 l -72.72727272727269,-41.98911048651827 " /><g><path d="M 545.4545454545455,293.9237734056276 c -6.217248937900877e-15,13.388721208019234 10.853703034404994,24.242424242424246 24.24242424242422 24.24242424242425c 4.255434265451177,-4.440892098500626e-16 8.435897943196625,-1.1201518664395307 12.12121212121212 -3.2478689991651146" /></g></g><g><g><path d="M 581.8181818181819,398.8965496219231 c -11.594972690332135,6.694360604009617 -15.567703726056616,21.5207946741391 -8.873343122047 33.11576736447123c 2.1277171327255906,3.685314178015491 5.188028944031503,6.745625989321406 8.873343122046991 8.873343122046998" /></g><path d="M 545.4545454545455,377.90199437866397 v 83.97822097303647 " /><g><path d="M 509.0909090909091,440.88566010844136 c 11.594972690332135,-6.694360604009619 15.567703726056614,-21.520794674139104 8.873343122046997 -33.11576736447123c -2.127717132725591,-3.6853141780154908 -5.188028944031504,-6.745625989321405 -8.873343122046993 -8.873343122046997" /></g></g><g><g><path d="M 545.4545454545455,545.858436324737 c 6.217248937900877e-15,-13.388721208019234 -10.853703034404994,-24.24242424242425 -24.24242424242422 -24.242424242424253c -4.255434265451178,2.220446049250313e-16 -8.435897943196625,1.1201518664395302 -12.12121212121212 3.2478689991651137" /></g><path d="M 581.8181818181819,524.8638810814779 l -72.72727272727269,-41.98911048651827 " /><g><path d="M 545.4545454545455,461.88021535170054 c -6.217248937900877e-15,13.388721208019234 10.853703034404994,24.242424242424246 24.24242424242422 24.24242424242425c 4.255434265451177,-4.440892098500626e-16 8.435897943196625,-1.1201518664395307 12.12121212121212 -3.2478689991651146" /></g></g><g><g><path d="M 581.8181818181819,566.852991567996 c -11.594972690332135,6.694360604009617 -15.567703726056616,21.5207946741391 -8.873343122047 33.11576736447123c 2.1277171327255906,3.685314178015491 5.188028944031503,6.745625989321406 8.873343122046991 8.873343122046998" /></g><path d="M 545.4545454545455,545.8584363247369 v 83.97822097303647 " /><g><path d="M 509.0909090909091,608.8421020545143 c 11.594972690332135,-6.694360604009619 15.567703726056614,-21.520794674139104 8.873343122046997 -33.11576736447123c -2.127717132725591,-3.6853141780154908 -5.188028944031504,-6.745625989321405 -8.873343122046993 -8.873343122046997" /></g></g><g><g><path d="M 509.0909090909091,650.8312125410325 c 11.594972690332133,6.69436060400962 26.42140676046162,2.7216295682851452 33.11576736447124 -8.873343122046983c 2.1277171327255875,-3.6853141780154925 3.247868999165124,-7.865777855760939 3.247868999165129 -12.121212121212116" /></g><path d="M 509.0909090909091,692.8203230275508 l 72.72727272727273,-41.989110486518214 " /><g><path d="M 581.8181818181819,692.8203230275508 c -11.594972690332135,-6.694360604009619 -26.42140676046162,-2.7216295682851435 -33.11576736447124 8.873343122046986c -2.1277171327255875,3.685314178015493 -3.2478689991651235,7.865777855760939 -3.247868999165128 12.121212121212118" /></g></g><g><g><path d="M 545.4545454545455,797.7930992438464 c 6.217248937900877e-15,-13.388721208019234 -10.853703034404994,-24.24242424242425 -24.24242424242422 -24.242424242424253c -4.255434265451178,2.220446049250313e-16 -8.435897943196625,1.1201518664395302 -12.12121212121212 3.2478689991651137" /></g><path d="M 581.8181818181819,776.7985440005873 l -72.72727272727269,-41.98911048651827 " /><g><path d="M 545.4545454545455,713.8148782708099 c -6.217248937900877e-15,13.388721208019234 10.853703034404994,24.242424242424246 24.24242424242422 24.24242424242425c 4.255434265451177,-4.440892098500626e-16 8.435897943196625,-1.1201518664395307 12.12121212121212 -3.2478689991651146" /></g></g><g><g><path d="M 545.4545454545455,881.7713202168828 c 6.217248937900877e-15,-13.388721208019234 -10.853703034404994,-24.24242424242425 -24.24242424242422 -24.242424242424253c -4.255434265451178,2.220446049250313e-16 -8.435897943196625,1.1201518664395302 -12.12121212121212 3.2478689991651137" /></g><path d="M 581.8181818181819,860.7767649736237 l -72.72727272727269,-41.98911048651827 " /><g><path d="M 545.4545454545455,797.7930992438463 c -6.217248937900877e-15,13.388721208019234 10.853703034404994,24.242424242424246 24.24242424242422 24.24242424242425c 4.255434265451177,-4.440892098500626e-16 8.435897943196625,-1.1201518664395307 12.12121212121212 -3.2478689991651146" /></g></g><g><g><path d="M 509.0909090909091,902.765875460142 c 11.594972690332133,6.69436060400962 26.42140676046162,2.7216295682851452 33.11576736447124 -8.873343122046983c 2.1277171327255875,-3.6853141780154925 3.247868999165124,-7.865777855760939 3.247868999165129 -12.121212121212116" /></g><path d="M 509.0909090909091,944.7549859466602 l 72.72727272727273,-41.989110486518214 " /><g><path d="M 581.8181818181819,944.7549859466602 c -11.594972690332135,-6.694360604009619 -26.42140676046162,-2.7216295682851435 -33.11576736447124 8.873343122046986c -2.1277171327255875,3.685314178015493 -3.2478689991651235,7.865777855760939 -3.247868999165128 12.121212121212118" /></g></g><g><g><path d="M 436.3636363636364,20.994555243259015 c 11.594972690332133,6.69436060400962 26.42140676046162,2.7216295682851452 33.11576736447124 -8.873343122046983c 2.1277171327255875,-3.6853141780154925 3.247868999165124,-7.865777855760939 3.247868999165129 -12.121212121212116" /></g><path d="M 436.3636363636364,62.98366572977725 l 72.72727272727273,-41.989110486518214 " /><g><path d="M 509.0909090909091,62.98366572977727 c -11.594972690332135,-6.694360604009619 -26.42140676046162,-2.7216295682851435 -33.11576736447124 8.873343122046986c -2.1277171327255875,3.685314178015493 -3.2478689991651235,7.865777855760939 -3.247868999165128 12.121212121212118" /></g></g><g><g><path d="M 509.0909090909091,104.97277621629554 c -11.594972690332135,6.694360604009617 -15.567703726056616,21.5207946741391 -8.873343122047 33.11576736447123c 2.1277171327255906,3.685314178015491 5.188028944031503,6.745625989321406 8.873343122046991 8.873343122046998" /></g><path d="M 472.72727272727275,83.97822097303643 v 83.97822097303647 " /><g><path d="M 436.3636363636364,146.96188670281379 c 11.594972690332135,-6.694360604009619 15.567703726056614,-21.520794674139104 8.873343122046997 -33.11576736447123c -2.127717132725591,-3.6853141780154908 -5.188028944031504,-6.745625989321405 -8.873343122046993 -8.873343122046997" /></g></g><g><g><path d="M 436.3636363636364,188.95099718933193 c 11.594972690332133,6.69436060400962 26.42140676046162,2.7216295682851452 33.11576736447124 -8.873343122046983c 2.1277171327255875,-3.6853141780154925 3.247868999165124,-7.865777855760939 3.247868999165129 -12.121212121212116" /></g><path d="M 436.3636363636364,230.94010767585016 l 72.72727272727273,-41.989110486518214 " /><g><path d="M 509.0909090909091,230.9401076758502 c -11.594972690332135,-6.694360604009619 -26.42140676046162,-2.7216295682851435 -33.11576736447124 8.873343122046986c -2.1277171327255875,3.685314178015493 -3.2478689991651235,7.865777855760939 -3.247868999165128 12.121212121212118" /></g></g><g><g><path d="M 509.0909090909091,272.92921816236844 c -11.594972690332135,6.694360604009617 -15.567703726056616,21.5207946741391 -8.873343122047 33.11576736447123c 2.1277171327255906,3.685314178015491 5.188028944031503,6.745625989321406 8.873343122046991 8.873343122046998" /></g><path d="M 472.72727272727275,251.93466291910934 v 83.97822097303647 " /><g><path d="M 436.3636363636364,314.9183286488867 c 11.594972690332135,-6.694360604009619 15.567703726056614,-21.520794674139104 8.873343122046997 -33.11576736447123c -2.127717132725591,-3.6853141780154908 -5.188028944031504,-6.745625989321405 -8.873343122046993 -8.873343122046997" /></g></g><g><g><path d="M 509.0909090909091,356.90743913540484 c -11.594972690332135,6.694360604009617 -15.567703726056616,21.5207946741391 -8.873343122047 33.11576736447123c 2.1277171327255906,3.685314178015491 5.188028944031503,6.745625989321406 8.873343122046991 8.873343122046998" /></g><path d="M 472.72727272727275,335.9128838921457 v 83.97822097303647 " /><g><path d="M 436.3636363636364,398.8965496219231 c 11.594972690332135,-6.694360604009619 15.567703726056614,-21.520794674139104 8.873343122046997 -33.11576736447123c -2.127717132725591,-3.6853141780154908 -5.188028944031504,-6.745625989321405 -8.873343122046993 -8.873343122046997" /></g></g><g><g><path d="M 472.72727272727275,503.8693258382187 c 6.217248937900877e-15,-13.388721208019234 -10.853703034404994,-24.24242424242425 -24.24242424242422 -24.242424242424253c -4.255434265451178,2.220446049250313e-16 -8.435897943196625,1.1201518664395302 -12.12121212121212 3.2478689991651137" /></g><path d="M 509.0909090909091,482.8747705949596 l -72.72727272727269,-41.98911048651827 " /><g><path d="M 472.72727272727275,419.8911048651823 c -6.217248937900877e-15,13.388721208019234 10.853703034404994,24.242424242424246 24.24242424242422 24.24242424242425c 4.255434265451177,-4.440892098500626e-16 8.435897943196625,-1.1201518664395307 12.12121212121212 -3.2478689991651146" /></g></g><g><g><path d="M 472.72727272727275,587.8475468112551 c 6.217248937900877e-15,-13.388721208019234 -10.853703034404994,-24.24242424242425 -24.24242424242422 -24.242424242424253c -4.255434265451178,2.220446049250313e-16 -8.435897943196625,1.1201518664395302 -12.12121212121212 3.2478689991651137" /></g><path d="M 509.0909090909091,566.852991567996 l -72.72727272727269,-41.98911048651827 " /><g><path d="M 472.72727272727275,503.8693258382187 c -6.217248937900877e-15,13.388721208019234 10.853703034404994,24.242424242424246 24.24242424242422 24.24242424242425c 4.255434265451177,-4.440892098500626e-16 8.435897943196625,-1.1201518664395307 12.12121212121212 -3.2478689991651146" /></g></g><g><g><path d="M 472.72727272727275,671.8257677842917 c 6.217248937900877e-15,-13.388721208019234 -10.853703034404994,-24.24242424242425 -24.24242424242422 -24.242424242424253c -4.255434265451178,2.220446049250313e-16 -8.435897943196625,1.1201518664395302 -12.12121212121212 3.2478689991651137" /></g><path d="M 509.0909090909091,650.8312125410325 l -72.72727272727269,-41.98911048651827 " /><g><path d="M 472.72727272727275,587.8475468112551 c -6.217248937900877e-15,13.388721208019234 10.853703034404994,24.242424242424246 24.24242424242422 24.24242424242425c 4.255434265451177,-4.440892098500626e-16 8.435897943196625,-1.1201518664395307 12.12121212121212 -3.2478689991651146" /></g></g><g><g><path d="M 436.3636363636364,692.8203230275508 c 11.594972690332133,6.69436060400962 26.42140676046162,2.7216295682851452 33.11576736447124 -8.873343122046983c 2.1277171327255875,-3.6853141780154925 3.247868999165124,-7.865777855760939 3.247868999165129 -12.121212121212116" /></g><path d="M 436.3636363636364,734.809433514069 l 72.72727272727273,-41.989110486518214 " /><g><path d="M 509.0909090909091,734.809433514069 c -11.594972690332135,-6.694360604009619 -26.42140676046162,-2.7216295682851435 -33.11576736447124 8.873343122046986c -2.1277171327255875,3.685314178015493 -3.2478689991651235,7.865777855760939 -3.247868999165128 12.121212121212118" /></g></g><g><g><path d="M 436.3636363636364,776.7985440005872 c 11.594972690332133,6.69436060400962 26.42140676046162,2.7216295682851452 33.11576736447124 -8.873343122046983c 2.1277171327255875,-3.6853141780154925 3.247868999165124,-7.865777855760939 3.247868999165129 -12.121212121212116" /></g><path d="M 436.3636363636364,818.7876544871054 l 72.72727272727273,-41.989110486518214 " /><g><path d="M 509.0909090909091,818.7876544871054 c -11.594972690332135,-6.694360604009619 -26.42140676046162,-2.7216295682851435 -33.11576736447124 8.873343122046986c -2.1277171327255875,3.685314178015493 -3.2478689991651235,7.865777855760939 -3.247868999165128 12.121212121212118" /></g></g><g><g><path d="M 509.0909090909091,860.7767649736237 c -11.594972690332135,6.694360604009617 -15.567703726056616,21.5207946741391 -8.873343122047 33.11576736447123c 2.1277171327255906,3.685314178015491 5.188028944031503,6.745625989321406 8.873343122046991 8.873343122046998" /></g><path d="M 472.72727272727275,839.7822097303646 v 83.97822097303647 " /><g><path d="M 436.3636363636364,902.765875460142 c 11.594972690332135,-6.694360604009619 15.567703726056614,-21.520794674139104 8.873343122046997 -33.11576736447123c -2.127717132725591,-3.6853141780154908 -5.188028944031504,-6.745625989321405 -8.873343122046993 -8.873343122046997" /></g></g><g><g><path d="M 363.6363636363636,62.98366572977727 c 11.594972690332133,6.69436060400962 26.42140676046162,2.7216295682851452 33.11576736447124 -8.873343122046983c 2.1277171327255875,-3.6853141780154925 3.247868999165124,-7.865777855760939 3.247868999165129 -12.121212121212116" /></g><path d="M 363.6363636363636,104.9727762162955 l 72.72727272727273,-41.989110486518214 " /><g><path d="M 436.3636363636364,104.97277621629553 c -11.594972690332135,-6.694360604009619 -26.42140676046162,-2.7216295682851435 -33.11576736447124 8.873343122046986c -2.1277171327255875,3.685314178015493 -3.2478689991651235,7.865777855760939 -3.247868999165128 12.121212121212118" /></g></g><g><g><path d="M 436.3636363636364,146.96188670281367 c -11.594972690332135,6.694360604009617 -15.567703726056616,21.5207946741391 -8.873343122047 33.11576736447123c 2.1277171327255906,3.685314178015491 5.188028944031503,6.745625989321406 8.873343122046991 8.873343122046998" /></g><path d="M 400.0,125.96733145955457 v 83.97822097303647 " /><g><path d="M 363.6363636363636,188.95099718933193 c 11.594972690332135,-6.694360604009619 15.567703726056614,-21.520794674139104 8.873343122046997 -33.11576736447123c -2.127717132725591,-3.6853141780154908 -5.188028944031504,-6.745625989321405 -8.873343122046993 -8.873343122046997" /></g></g><g><g><path d="M 400.0,293.9237734056275 c 6.217248937900877e-15,-13.388721208019234 -10.853703034404994,-24.24242424242425 -24.24242424242422 -24.242424242424253c -4.255434265451178,2.220446049250313e-16 -8.435897943196625,1.1201518664395302 -12.12121212121212 3.2478689991651137" /></g><path d="M 436.3636363636364,272.92921816236844 l -72.72727272727269,-41.98911048651827 " /><g><path d="M 400.0,209.9455524325911 c -6.217248937900877e-15,13.388721208019234 10.853703034404994,24.242424242424246 24.24242424242422 24.24242424242425c 4.255434265451177,-4.440892098500626e-16 8.435897943196625,-1.1201518664395307 12.12121212121212 -3.2478689991651146" /></g></g><g><g><path d="M 436.3636363636364,314.9183286488867 c -11.594972690332135,6.694360604009617 -15.567703726056616,21.5207946741391 -8.873343122047 33.11576736447123c 2.1277171327255906,3.685314178015491 5.188028944031503,6.745625989321406 8.873343122046991 8.873343122046998" /></g><path d="M 400.0,293.92377340562757 v 83.97822097303647 " /><g><path d="M 363.6363636363636,356.90743913540496 c 11.594972690332135,-6.694360604009619 15.567703726056614,-21.520794674139104 8.873343122046997 -33.11576736447123c -2.127717132725591,-3.6853141780154908 -5.188028944031504,-6.745625989321405 -8.873343122046993 -8.873343122046997" /></g></g><g><g><path d="M 363.6363636363636,398.8965496219231 c 11.594972690332133,6.69436060400962 26.42140676046162,2.7216295682851452 33.11576736447124 -8.873343122046983c 2.1277171327255875,-3.6853141780154925 3.247868999165124,-7.865777855760939 3.247868999165129 -12.121212121212116" /></g><path d="M 363.6363636363636,440.88566010844136 l 72.72727272727273,-41.989110486518214 " /><g><path d="M 436.3636363636364,440.88566010844136 c -11.594972690332135,-6.694360604009619 -26.42140676046162,-2.7216295682851435 -33.11576736447124 8.873343122046986c -2.1277171327255875,3.685314178015493 -3.2478689991651235,7.865777855760939 -3.247868999165128 12.121212121212118" /></g></g><g><g><path d="M 436.3636363636364,482.8747705949596 c -11.594972690332135,6.694360604009617 -15.567703726056616,21.5207946741391 -8.873343122047 33.11576736447123c 2.1277171327255906,3.685314178015491 5.188028944031503,6.745625989321406 8.873343122046991 8.873343122046998" /></g><path d="M 400.0,461.8802153517005 v 83.97822097303647 " /><g><path d="M 363.6363636363636,524.8638810814779 c 11.594972690332135,-6.694360604009619 15.567703726056614,-21.520794674139104 8.873343122046997 -33.11576736447123c -2.127717132725591,-3.6853141780154908 -5.188028944031504,-6.745625989321405 -8.873343122046993 -8.873343122046997" /></g></g><g><g><path d="M 400.0,629.8366572977734 c 6.217248937900877e-15,-13.388721208019234 -10.853703034404994,-24.24242424242425 -24.24242424242422 -24.242424242424253c -4.255434265451178,2.220446049250313e-16 -8.435897943196625,1.1201518664395302 -12.12121212121212 3.2478689991651137" /></g><path d="M 436.3636363636364,608.8421020545143 l -72.72727272727269,-41.98911048651827 " /><g><path d="M 400.0,545.8584363247369 c -6.217248937900877e-15,13.388721208019234 10.853703034404994,24.242424242424246 24.24242424242422 24.24242424242425c 4.255434265451177,-4.440892098500626e-16 8.435897943196625,-1.1201518664395307 12.12121212121212 -3.2478689991651146" /></g></g><g><g><path d="M 400.0,713.8148782708099 c 6.217248937900877e-15,-13.388721208019234 -10.853703034404994,-24.24242424242425 -24.24242424242422 -24.242424242424253c -4.255434265451178,2.220446049250313e-16 -8.435897943196625,1.1201518664395302 -12.12121212121212 3.2478689991651137" /></g><path d="M 436.3636363636364,692.8203230275508 l -72.72727272727269,-41.98911048651827 " /><g><path d="M 400.0,629.8366572977734 c -6.217248937900877e-15,13.388721208019234 10.853703034404994,24.242424242424246 24.24242424242422 24.24242424242425c 4.255434265451177,-4.440892098500626e-16 8.435897943196625,-1.1201518664395307 12.12121212121212 -3.2478689991651146" /></g></g><g><g><path d="M 363.6363636363636,734.809433514069 c 11.594972690332133,6.69436060400962 26.42140676046162,2.7216295682851452 33.11576736447124 -8.873343122046983c 2.1277171327255875,-3.6853141780154925 3.247868999165124,-7.865777855760939 3.247868999165129 -12.121212121212116" /></g><path d="M 363.6363636363636,776.7985440005873 l 72.72727272727273,-41.989110486518214 " /><g><path d="M 436.3636363636364,776.7985440005873 c -11.594972690332135,-6.694360604009619 -26.42140676046162,-2.7216295682851435 -33.11576736447124 8.873343122046986c -2.1277171327255875,3.685314178015493 -3.2478689991651235,7.865777855760939 -3.247868999165128 12.121212121212118" /></g></g><g><g><path d="M 363.6363636363636,818.7876544871054 c 11.594972690332133,6.69436060400962 26.42140676046162,2.7216295682851452 33.11576736447124 -8.873343122046983c 2.1277171327255875,-3.6853141780154925 3.247868999165124,-7.865777855760939 3.247868999165129 -12.121212121212116" /></g><path d="M 363.6363636363636,860.7767649736237 l 72.72727272727273,-41.989110486518214 " /><g><path d="M 436.3636363636364,860.7767649736237 c -11.594972690332135,-6.694360604009619 -26.42140676046162,-2.7216295682851435 -33.11576736447124 8.873343122046986c -2.1277171327255875,3.685314178015493 -3.2478689991651235,7.865777855760939 -3.247868999165128 12.121212121212118" /></g></g><g><g><path d="M 363.6363636363636,902.765875460142 c 11.594972690332133,6.69436060400962 26.42140676046162,2.7216295682851452 33.11576736447124 -8.873343122046983c 2.1277171327255875,-3.6853141780154925 3.247868999165124,-7.865777855760939 3.247868999165129 -12.121212121212116" /></g><path d="M 363.6363636363636,944.7549859466602 l 72.72727272727273,-41.989110486518214 " /><g><path d="M 436.3636363636364,944.7549859466602 c -11.594972690332135,-6.694360604009619 -26.42140676046162,-2.7216295682851435 -33.11576736447124 8.873343122046986c -2.1277171327255875,3.685314178015493 -3.2478689991651235,7.865777855760939 -3.247868999165128 12.121212121212118" /></g></g><g><g><path d="M 327.27272727272725,83.97822097303639 c 6.217248937900877e-15,-13.388721208019234 -10.853703034404994,-24.24242424242425 -24.24242424242422 -24.242424242424253c -4.255434265451178,2.220446049250313e-16 -8.435897943196625,1.1201518664395302 -12.12121212121212 3.2478689991651137" /></g><path d="M 363.6363636363636,62.98366572977728 l -72.72727272727269,-41.98911048651827 " /><g><path d="M 327.27272727272725,-8.881784197001252e-14 c -6.217248937900877e-15,13.388721208019234 10.853703034404994,24.242424242424246 24.24242424242422 24.24242424242425c 4.255434265451177,-4.440892098500626e-16 8.435897943196625,-1.1201518664395307 12.12121212121212 -3.2478689991651146" /></g></g><g><g><path d="M 363.6363636363636,104.97277621629554 c -11.594972690332135,6.694360604009617 -15.567703726056616,21.5207946741391 -8.873343122047 33.11576736447123c 2.1277171327255906,3.685314178015491 5.188028944031503,6.745625989321406 8.873343122046991 8.873343122046998" /></g><path d="M 327.27272727272725,83.97822097303643 v 83.97822097303647 " /><g><path d="M 290.9090909090909,146.96188670281379 c 11.594972690332135,-6.694360604009619 15.567703726056614,-21.520794674139104 8.873343122046997 -33.11576736447123c -2.127717132725591,-3.6853141780154908 -5.188028944031504,-6.745625989321405 -8.873343122046993 -8.873343122046997" /></g></g><g><g><path d="M 363.6363636363636,188.95099718933193 c -11.594972690332135,6.694360604009617 -15.567703726056616,21.5207946741391 -8.873343122047 33.11576736447123c 2.1277171327255906,3.685314178015491 5.188028944031503,6.745625989321406 8.873343122046991 8.873343122046998" /></g><path d="M 327.27272727272725,167.95644194607283 v 83.97822097303647 " /><g><path d="M 290.9090909090909,230.9401076758502 c 11.594972690332135,-6.694360604009619 15.567703726056614,-21.520794674139104 8.873343122046997 -33.11576736447123c -2.127717132725591,-3.6853141780154908 -5.188028944031504,-6.745625989321405 -8.873343122046993 -8.873343122046997" /></g></g><g><g><path d="M 327.27272727272725,335.91288389214577 c 6.217248937900877e-15,-13.388721208019234 -10.853703034404994,-24.24242424242425 -24.24242424242422 -24.242424242424253c -4.255434265451178,2.220446049250313e-16 -8.435897943196625,1.1201518664395302 -12.12121212121212 3.2478689991651137" /></g><path d="M 363.6363636363636,314.9183286488867 l -72.72727272727269,-41.98911048651827 " /><g><path d="M 327.27272727272725,251.93466291910934 c -6.217248937900877e-15,13.388721208019234 10.853703034404994,24.242424242424246 24.24242424242422 24.24242424242425c 4.255434265451177,-4.440892098500626e-16 8.435897943196625,-1.1201518664395307 12.12121212121212 -3.2478689991651146" /></g></g><g><g><path d="M 290.9090909090909,356.90743913540484 c 11.594972690332133,6.69436060400962 26.42140676046162,2.7216295682851452 33.11576736447124 -8.873343122046983c 2.1277171327255875,-3.6853141780154925 3.247868999165124,-7.865777855760939 3.247868999165129 -12.121212121212116" /></g><path d="M 290.9090909090909,398.8965496219231 l 72.72727272727273,-41.989110486518214 " /><g><path d="M 363.6363636363636,398.8965496219231 c -11.594972690332135,-6.694360604009619 -26.42140676046162,-2.7216295682851435 -33.11576736447124 8.873343122046986c -2.1277171327255875,3.685314178015493 -3.2478689991651235,7.865777855760939 -3.247868999165128 12.121212121212118" /></g></g><g><g><path d="M 290.9090909090909,440.88566010844136 c 11.594972690332133,6.69436060400962 26.42140676046162,2.7216295682851452 33.11576736447124 -8.873343122046983c 2.1277171327255875,-3.6853141780154925 3.247868999165124,-7.865777855760939 3.247868999165129 -12.121212121212116" /></g><path d="M 290.9090909090909,482.8747705949596 l 72.72727272727273,-41.989110486518214 " /><g><path d="M 363.6363636363636,482.8747705949596 c -11.594972690332135,-6.694360604009619 -26.42140676046162,-2.7216295682851435 -33.11576736447124 8.873343122046986c -2.1277171327255875,3.685314178015493 -3.2478689991651235,7.865777855760939 -3.247868999165128 12.121212121212118" /></g></g><g><g><path d="M 363.6363636363636,524.8638810814778 c -11.594972690332135,6.694360604009617 -15.567703726056616,21.5207946741391 -8.873343122047 33.11576736447123c 2.1277171327255906,3.685314178015491 5.188028944031503,6.745625989321406 8.873343122046991 8.873343122046998" /></g><path d="M 327.27272727272725,503.86932583821863 v 83.97822097303647 " /><g><path d="M 290.9090909090909,566.852991567996 c 11.594972690332135,-6.694360604009619 15.567703726056614,-21.520794674139104 8.873343122046997 -33.11576736447123c -2.127717132725591,-3.6853141780154908 -5.188028944031504,-6.745625989321405 -8.873343122046993 -8.873343122046997" /></g></g><g><g><path d="M 290.9090909090909,608.8421020545143 c 11.594972690332133,6.69436060400962 26.42140676046162,2.7216295682851452 33.11576736447124 -8.873343122046983c 2.1277171327255875,-3.6853141780154925 3.247868999165124,-7.865777855760939 3.247868999165129 -12.121212121212116" /></g><path d="M 290.9090909090909,650.8312125410325 l 72.72727272727273,-41.989110486518214 " /><g><path d="M 363.6363636363636,650.8312125410325 c -11.594972690332135,-6.694360604009619 -26.42140676046162,-2.7216295682851435 -33.11576736447124 8.873343122046986c -2.1277171327255875,3.685314178015493 -3.2478689991651235,7.865777855760939 -3.247868999165128 12.121212121212118" /></g></g><g><g><path d="M 327.27272727272725,755.8039887573282 c 6.217248937900877e-15,-13.388721208019234 -10.853703034404994,-24.24242424242425 -24.24242424242422 -24.242424242424253c -4.255434265451178,2.220446049250313e-16 -8.435897943196625,1.1201518664395302 -12.12121212121212 3.2478689991651137" /></g><path d="M 363.6363636363636,734.809433514069 l -72.72727272727269,-41.98911048651827 " /><g><path d="M 327.27272727272725,671.8257677842917 c -6.217248937900877e-15,13.388721208019234 10.853703034404994,24.242424242424246 24.24242424242422 24.24242424242425c 4.255434265451177,-4.440892098500626e-16 8.435897943196625,-1.1201518664395307 12.12121212121212 -3.2478689991651146" /></g></g><g><g><path d="M 363.6363636363636,776.7985440005872 c -11.594972690332135,6.694360604009617 -15.567703726056616,21.5207946741391 -8.873343122047 33.11576736447123c 2.1277171327255906,3.685314178015491 5.188028944031503,6.745625989321406 8.873343122046991 8.873343122046998" /></g><path d="M 327.27272727272725,755.803988757328 v 83.97822097303647 " /><g><path d="M 290.9090909090909,818.7876544871054 c 11.594972690332135,-6.694360604009619 15.567703726056614,-21.520794674139104 8.873343122046997 -33.11576736447123c -2.127717132725591,-3.6853141780154908 -5.188028944031504,-6.745625989321405 -8.873343122046993 -8.873343122046997" /></g></g><g><g><path d="M 363.6363636363636,860.7767649736237 c -11.594972690332135,6.694360604009617 -15.567703726056616,21.5207946741391 -8.873343122047 33.11576736447123c 2.1277171327255906,3.685314178015491 5.188028944031503,6.745625989321406 8.873343122046991 8.873343122046998" /></g><path d="M 327.27272727272725,839.7822097303646 v 83.97822097303647 " /><g><path d="M 290.9090909090909,902.765875460142 c 11.594972690332135,-6.694360604009619 15.567703726056614,-21.520794674139104 8.873343122046997 -33.11576736447123c -2.127717132725591,-3.6853141780154908 -5.188028944031504,-6.745625989321405 -8.873343122046993 -8.873343122046997" /></g></g><g><g><path d="M 218.18181818181822,62.98366572977727 c 11.594972690332133,6.69436060400962 26.42140676046162,2.7216295682851452 33.11576736447124 -8.873343122046983c 2.1277171327255875,-3.6853141780154925 3.247868999165124,-7.865777855760939 3.247868999165129 -12.121212121212116" /></g><path d="M 218.1818181818182,104.9727762162955 l 72.72727272727273,-41.989110486518214 " /><g><path d="M 290.90909090909093,104.97277621629553 c -11.594972690332135,-6.694360604009619 -26.42140676046162,-2.7216295682851435 -33.11576736447124 8.873343122046986c -2.1277171327255875,3.685314178015493 -3.2478689991651235,7.865777855760939 -3.247868999165128 12.121212121212118" /></g></g><g><g><path d="M 218.18181818181822,146.96188670281367 c 11.594972690332133,6.69436060400962 26.42140676046162,2.7216295682851452 33.11576736447124 -8.873343122046983c 2.1277171327255875,-3.6853141780154925 3.247868999165124,-7.865777855760939 3.247868999165129 -12.121212121212116" /></g><path d="M 218.1818181818182,188.9509971893319 l 72.72727272727273,-41.989110486518214 " /><g><path d="M 290.90909090909093,188.95099718933193 c -11.594972690332135,-6.694360604009619 -26.42140676046162,-2.7216295682851435 -33.11576736447124 8.873343122046986c -2.1277171327255875,3.685314178015493 -3.2478689991651235,7.865777855760939 -3.247868999165128 12.121212121212118" /></g></g><g><g><path d="M 218.18181818181822,230.9401076758502 c 11.594972690332133,6.69436060400962 26.42140676046162,2.7216295682851452 33.11576736447124 -8.873343122046983c 2.1277171327255875,-3.6853141780154925 3.247868999165124,-7.865777855760939 3.247868999165129 -12.121212121212116" /></g><path d="M 218.1818181818182,272.92921816236844 l 72.72727272727273,-41.989110486518214 " /><g><path d="M 290.90909090909093,272.92921816236844 c -11.594972690332135,-6.694360604009619 -26.42140676046162,-2.7216295682851435 -33.11576736447124 8.873343122046986c -2.1277171327255875,3.685314178015493 -3.2478689991651235,7.865777855760939 -3.247868999165128 12.121212121212118" /></g></g><g><g><path d="M 254.54545454545456,377.901994378664 c 6.217248937900877e-15,-13.388721208019234 -10.853703034404994,-24.24242424242425 -24.24242424242422 -24.242424242424253c -4.255434265451178,2.220446049250313e-16 -8.435897943196625,1.1201518664395302 -12.12121212121212 3.2478689991651137" /></g><path d="M 290.9090909090909,356.90743913540496 l -72.72727272727269,-41.98911048651827 " /><g><path d="M 254.54545454545456,293.9237734056276 c -6.217248937900877e-15,13.388721208019234 10.853703034404994,24.242424242424246 24.24242424242422 24.24242424242425c 4.255434265451177,-4.440892098500626e-16 8.435897943196625,-1.1201518664395307 12.12121212121212 -3.2478689991651146" /></g></g><g><g><path d="M 218.18181818181822,398.8965496219231 c 11.594972690332133,6.69436060400962 26.42140676046162,2.7216295682851452 33.11576736447124 -8.873343122046983c 2.1277171327255875,-3.6853141780154925 3.247868999165124,-7.865777855760939 3.247868999165129 -12.121212121212116" /></g><path d="M 218.1818181818182,440.88566010844136 l 72.72727272727273,-41.989110486518214 " /><g><path d="M 290.90909090909093,440.88566010844136 c -11.594972690332135,-6.694360604009619 -26.42140676046162,-2.7216295682851435 -33.11576736447124 8.873343122046986c -2.1277171327255875,3.685314178015493 -3.2478689991651235,7.865777855760939 -3.247868999165128 12.121212121212118" /></g></g><g><g><path d="M 218.18181818181822,482.8747705949596 c 11.594972690332133,6.69436060400962 26.42140676046162,2.7216295682851452 33.11576736447124 -8.873343122046983c 2.1277171327255875,-3.6853141780154925 3.247868999165124,-7.865777855760939 3.247868999165129 -12.121212121212116" /></g><path d="M 218.1818181818182,524.8638810814779 l 72.72727272727273,-41.989110486518214 " /><g><path d="M 290.90909090909093,524.8638810814779 c -11.594972690332135,-6.694360604009619 -26.42140676046162,-2.7216295682851435 -33.11576736447124 8.873343122046986c -2.1277171327255875,3.685314178015493 -3.2478689991651235,7.865777855760939 -3.247868999165128 12.121212121212118" /></g></g><g><g><path d="M 290.90909090909093,566.852991567996 c -11.594972690332135,6.694360604009617 -15.567703726056616,21.5207946741391 -8.873343122047 33.11576736447123c 2.1277171327255906,3.685314178015491 5.188028944031503,6.745625989321406 8.873343122046991 8.873343122046998" /></g><path d="M 254.54545454545456,545.8584363247369 v 83.97822097303647 " /><g><path d="M 218.1818181818182,608.8421020545143 c 11.594972690332135,-6.694360604009619 15.567703726056614,-21.520794674139104 8.873343122046997 -33.11576736447123c -2.127717132725591,-3.6853141780154908 -5.188028944031504,-6.745625989321405 -8.873343122046993 -8.873343122046997" /></g></g><g><g><path d="M 254.54545454545456,713.8148782708099 c 6.217248937900877e-15,-13.388721208019234 -10.853703034404994,-24.24242424242425 -24.24242424242422 -24.242424242424253c -4.255434265451178,2.220446049250313e-16 -8.435897943196625,1.1201518664395302 -12.12121212121212 3.2478689991651137" /></g><path d="M 290.9090909090909,692.8203230275508 l -72.72727272727269,-41.98911048651827 " /><g><path d="M 254.54545454545456,629.8366572977734 c -6.217248937900877e-15,13.388721208019234 10.853703034404994,24.242424242424246 24.24242424242422 24.24242424242425c 4.255434265451177,-4.440892098500626e-16 8.435897943196625,-1.1201518664395307 12.12121212121212 -3.2478689991651146" /></g></g><g><g><path d="M 254.54545454545456,797.7930992438464 c 6.217248937900877e-15,-13.388721208019234 -10.853703034404994,-24.24242424242425 -24.24242424242422 -24.242424242424253c -4.255434265451178,2.220446049250313e-16 -8.435897943196625,1.1201518664395302 -12.12121212121212 3.2478689991651137" /></g><path d="M 290.9090909090909,776.7985440005873 l -72.72727272727269,-41.98911048651827 " /><g><path d="M 254.54545454545456,713.8148782708099 c -6.217248937900877e-15,13.388721208019234 10.853703034404994,24.242424242424246 24.24242424242422 24.24242424242425c 4.255434265451177,-4.440892098500626e-16 8.435897943196625,-1.1201518664395307 12.12121212121212 -3.2478689991651146" /></g></g><g><g><path d="M 218.18181818181822,818.7876544871054 c 11.594972690332133,6.69436060400962 26.42140676046162,2.7216295682851452 33.11576736447124 -8.873343122046983c 2.1277171327255875,-3.6853141780154925 3.247868999165124,-7.865777855760939 3.247868999165129 -12.121212121212116" /></g><path d="M 218.1818181818182,860.7767649736237 l 72.72727272727273,-41.989110486518214 " /><g><path d="M 290.90909090909093,860.7767649736237 c -11.594972690332135,-6.694360604009619 -26.42140676046162,-2.7216295682851435 -33.11576736447124 8.873343122046986c -2.1277171327255875,3.685314178015493 -3.2478689991651235,7.865777855760939 -3.247868999165128 12.121212121212118" /></g></g><g><g><path d="M 290.90909090909093,902.765875460142 c -11.594972690332135,6.694360604009617 -15.567703726056616,21.5207946741391 -8.873343122047 33.11576736447123c 2.1277171327255906,3.685314178015491 5.188028944031503,6.745625989321406 8.873343122046991 8.873343122046998" /></g><path d="M 254.54545454545456,881.7713202168828 v 83.97822097303647 " /><g><path d="M 218.1818181818182,944.7549859466602 c 11.594972690332135,-6.694360604009619 15.567703726056614,-21.520794674139104 8.873343122046997 -33.11576736447123c -2.127717132725591,-3.6853141780154908 -5.188028944031504,-6.745625989321405 -8.873343122046993 -8.873343122046997" /></g></g><g><g><path d="M 145.45454545454547,20.994555243259015 c 11.594972690332133,6.69436060400962 26.42140676046162,2.7216295682851452 33.11576736447124 -8.873343122046983c 2.1277171327255875,-3.6853141780154925 3.247868999165124,-7.865777855760939 3.247868999165129 -12.121212121212116" /></g><path d="M 145.45454545454544,62.98366572977725 l 72.72727272727273,-41.989110486518214 " /><g><path d="M 218.18181818181816,62.98366572977727 c -11.594972690332135,-6.694360604009619 -26.42140676046162,-2.7216295682851435 -33.11576736447124 8.873343122046986c -2.1277171327255875,3.685314178015493 -3.2478689991651235,7.865777855760939 -3.247868999165128 12.121212121212118" /></g></g><g><g><path d="M 181.8181818181818,167.95644194607289 c 6.217248937900877e-15,-13.388721208019234 -10.853703034404994,-24.24242424242425 -24.24242424242422 -24.242424242424253c -4.255434265451178,2.220446049250313e-16 -8.435897943196625,1.1201518664395302 -12.12121212121212 3.2478689991651137" /></g><path d="M 218.18181818181816,146.96188670281379 l -72.72727272727269,-41.98911048651827 " /><g><path d="M 181.8181818181818,83.97822097303641 c -6.217248937900877e-15,13.388721208019234 10.853703034404994,24.242424242424246 24.24242424242422 24.24242424242425c 4.255434265451177,-4.440892098500626e-16 8.435897943196625,-1.1201518664395307 12.12121212121212 -3.2478689991651146" /></g></g><g><g><path d="M 218.1818181818182,188.95099718933193 c -11.594972690332135,6.694360604009617 -15.567703726056616,21.5207946741391 -8.873343122047 33.11576736447123c 2.1277171327255906,3.685314178015491 5.188028944031503,6.745625989321406 8.873343122046991 8.873343122046998" /></g><path d="M 181.8181818181818,167.95644194607283 v 83.97822097303647 " /><g><path d="M 145.45454545454544,230.9401076758502 c 11.594972690332135,-6.694360604009619 15.567703726056614,-21.520794674139104 8.873343122046997 -33.11576736447123c -2.127717132725591,-3.6853141780154908 -5.188028944031504,-6.745625989321405 -8.873343122046993 -8.873343122046997" /></g></g><g><g><path d="M 218.1818181818182,272.92921816236844 c -11.594972690332135,6.694360604009617 -15.567703726056616,21.5207946741391 -8.873343122047 33.11576736447123c 2.1277171327255906,3.685314178015491 5.188028944031503,6.745625989321406 8.873343122046991 8.873343122046998" /></g><path d="M 181.8181818181818,251.93466291910934 v 83.97822097303647 " /><g><path d="M 145.45454545454544,314.9183286488867 c 11.594972690332135,-6.694360604009619 15.567703726056614,-21.520794674139104 8.873343122046997 -33.11576736447123c -2.127717132725591,-3.6853141780154908 -5.188028944031504,-6.745625989321405 -8.873343122046993 -8.873343122046997" /></g></g><g><g><path d="M 145.45454545454547,356.90743913540484 c 11.594972690332133,6.69436060400962 26.42140676046162,2.7216295682851452 33.11576736447124 -8.873343122046983c 2.1277171327255875,-3.6853141780154925 3.247868999165124,-7.865777855760939 3.247868999165129 -12.121212121212116" /></g><path d="M 145.45454545454544,398.8965496219231 l 72.72727272727273,-41.989110486518214 " /><g><path d="M 218.18181818181816,398.8965496219231 c -11.594972690332135,-6.694360604009619 -26.42140676046162,-2.7216295682851435 -33.11576736447124 8.873343122046986c -2.1277171327255875,3.685314178015493 -3.2478689991651235,7.865777855760939 -3.247868999165128 12.121212121212118" /></g></g><g><g><path d="M 181.8181818181818,503.8693258382187 c 6.217248937900877e-15,-13.388721208019234 -10.853703034404994,-24.24242424242425 -24.24242424242422 -24.242424242424253c -4.255434265451178,2.220446049250313e-16 -8.435897943196625,1.1201518664395302 -12.12121212121212 3.2478689991651137" /></g><path d="M 218.18181818181816,482.8747705949596 l -72.72727272727269,-41.98911048651827 " /><g><path d="M 181.8181818181818,419.8911048651823 c -6.217248937900877e-15,13.388721208019234 10.853703034404994,24.242424242424246 24.24242424242422 24.24242424242425c 4.255434265451177,-4.440892098500626e-16 8.435897943196625,-1.1201518664395307 12.12121212121212 -3.2478689991651146" /></g></g><g><g><path d="M 145.45454545454547,524.8638810814778 c 11.594972690332133,6.69436060400962 26.42140676046162,2.7216295682851452 33.11576736447124 -8.873343122046983c 2.1277171327255875,-3.6853141780154925 3.247868999165124,-7.865777855760939 3.247868999165129 -12.121212121212116" /></g><path d="M 145.45454545454544,566.852991567996 l 72.72727272727273,-41.989110486518214 " /><g><path d="M 218.18181818181816,566.852991567996 c -11.594972690332135,-6.694360604009619 -26.42140676046162,-2.7216295682851435 -33.11576736447124 8.873343122046986c -2.1277171327255875,3.685314178015493 -3.2478689991651235,7.865777855760939 -3.247868999165128 12.121212121212118" /></g></g><g><g><path d="M 181.8181818181818,671.8257677842917 c 6.217248937900877e-15,-13.388721208019234 -10.853703034404994,-24.24242424242425 -24.24242424242422 -24.242424242424253c -4.255434265451178,2.220446049250313e-16 -8.435897943196625,1.1201518664395302 -12.12121212121212 3.2478689991651137" /></g><path d="M 218.18181818181816,650.8312125410325 l -72.72727272727269,-41.98911048651827 " /><g><path d="M 181.8181818181818,587.8475468112551 c -6.217248937900877e-15,13.388721208019234 10.853703034404994,24.242424242424246 24.24242424242422 24.24242424242425c 4.255434265451177,-4.440892098500626e-16 8.435897943196625,-1.1201518664395307 12.12121212121212 -3.2478689991651146" /></g></g><g><g><path d="M 218.1818181818182,692.8203230275508 c -11.594972690332135,6.694360604009617 -15.567703726056616,21.5207946741391 -8.873343122047 33.11576736447123c 2.1277171327255906,3.685314178015491 5.188028944031503,6.745625989321406 8.873343122046991 8.873343122046998" /></g><path d="M 181.8181818181818,671.8257677842917 v 83.97822097303647 " /><g><path d="M 145.45454545454544,734.809433514069 c 11.594972690332135,-6.694360604009619 15.567703726056614,-21.520794674139104 8.873343122046997 -33.11576736447123c -2.127717132725591,-3.6853141780154908 -5.188028944031504,-6.745625989321405 -8.873343122046993 -8.873343122046997" /></g></g><g><g><path d="M 218.1818181818182,776.7985440005872 c -11.594972690332135,6.694360604009617 -15.567703726056616,21.5207946741391 -8.873343122047 33.11576736447123c 2.1277171327255906,3.685314178015491 5.188028944031503,6.745625989321406 8.873343122046991 8.873343122046998" /></g><path d="M 181.8181818181818,755.803988757328 v 83.97822097303647 " /><g><path d="M 145.45454545454544,818.7876544871054 c 11.594972690332135,-6.694360604009619 15.567703726056614,-21.520794674139104 8.873343122046997 -33.11576736447123c -2.127717132725591,-3.6853141780154908 -5.188028944031504,-6.745625989321405 -8.873343122046993 -8.873343122046997" /></g></g><g><g><path d="M 145.45454545454547,860.7767649736237 c 11.594972690332133,6.69436060400962 26.42140676046162,2.7216295682851452 33.11576736447124 -8.873343122046983c 2.1277171327255875,-3.6853141780154925 3.247868999165124,-7.865777855760939 3.247868999165129 -12.121212121212116" /></g><path d="M 145.45454545454544,902.765875460142 l 72.72727272727273,-41.989110486518214 " /><g><path d="M 218.18181818181816,902.765875460142 c -11.594972690332135,-6.694360604009619 -26.42140676046162,-2.7216295682851435 -33.11576736447124 8.873343122046986c -2.1277171327255875,3.685314178015493 -3.2478689991651235,7.865777855760939 -3.247868999165128 12.121212121212118" /></g></g><g><g><path d="M 145.45454545454544,62.983665729777286 c -11.594972690332135,6.694360604009617 -15.567703726056616,21.5207946741391 -8.873343122047 33.11576736447123c 2.1277171327255906,3.685314178015491 5.188028944031503,6.745625989321406 8.873343122046991 8.873343122046998" /></g><path d="M 109.0909090909091,41.989110486518165 v 83.97822097303647 " /><g><path d="M 72.72727272727273,104.97277621629551 c 11.594972690332135,-6.694360604009619 15.567703726056614,-21.520794674139104 8.873343122046997 -33.11576736447123c -2.127717132725591,-3.6853141780154908 -5.188028944031504,-6.745625989321405 -8.873343122046993 -8.873343122046997" /></g></g><g><g><path d="M 145.45454545454544,146.96188670281367 c -11.594972690332135,6.694360604009617 -15.567703726056616,21.5207946741391 -8.873343122047 33.11576736447123c 2.1277171327255906,3.685314178015491 5.188028944031503,6.745625989321406 8.873343122046991 8.873343122046998" /></g><path d="M 109.0909090909091,125.96733145955457 v 83.97822097303647 " /><g><path d="M 72.72727272727273,188.95099718933193 c 11.594972690332135,-6.694360604009619 15.567703726056614,-21.520794674139104 8.873343122046997 -33.11576736447123c -2.127717132725591,-3.6853141780154908 -5.188028944031504,-6.745625989321405 -8.873343122046993 -8.873343122046997" /></g></g><g><g><path d="M 109.09090909090907,293.9237734056275 c 6.217248937900877e-15,-13.388721208019234 -10.853703034404994,-24.24242424242425 -24.24242424242422 -24.242424242424253c -4.255434265451178,2.220446049250313e-16 -8.435897943196625,1.1201518664395302 -12.12121212121212 3.2478689991651137" /></g><path d="M 145.45454545454544,272.92921816236844 l -72.72727272727269,-41.98911048651827 " /><g><path d="M 109.09090909090912,209.9455524325911 c -6.217248937900877e-15,13.388721208019234 10.853703034404994,24.242424242424246 24.24242424242422 24.24242424242425c 4.255434265451177,-4.440892098500626e-16 8.435897943196625,-1.1201518664395307 12.12121212121212 -3.2478689991651146" /></g></g><g><g><path d="M 109.09090909090907,377.901994378664 c 6.217248937900877e-15,-13.388721208019234 -10.853703034404994,-24.24242424242425 -24.24242424242422 -24.242424242424253c -4.255434265451178,2.220446049250313e-16 -8.435897943196625,1.1201518664395302 -12.12121212121212 3.2478689991651137" /></g><path d="M 145.45454545454544,356.90743913540496 l -72.72727272727269,-41.98911048651827 " /><g><path d="M 109.09090909090912,293.9237734056276 c -6.217248937900877e-15,13.388721208019234 10.853703034404994,24.242424242424246 24.24242424242422 24.24242424242425c 4.255434265451177,-4.440892098500626e-16 8.435897943196625,-1.1201518664395307 12.12121212121212 -3.2478689991651146" /></g></g><g><g><path d="M 72.72727272727273,398.8965496219231 c 11.594972690332133,6.69436060400962 26.42140676046162,2.7216295682851452 33.11576736447124 -8.873343122046983c 2.1277171327255875,-3.6853141780154925 3.247868999165124,-7.865777855760939 3.247868999165129 -12.121212121212116" /></g><path d="M 72.72727272727272,440.88566010844136 l 72.72727272727273,-41.989110486518214 " /><g><path d="M 145.45454545454544,440.88566010844136 c -11.594972690332135,-6.694360604009619 -26.42140676046162,-2.7216295682851435 -33.11576736447124 8.873343122046986c -2.1277171327255875,3.685314178015493 -3.2478689991651235,7.865777855760939 -3.247868999165128 12.121212121212118" /></g></g><g><g><path d="M 72.72727272727273,482.8747705949596 c 11.594972690332133,6.69436060400962 26.42140676046162,2.7216295682851452 33.11576736447124 -8.873343122046983c 2.1277171327255875,-3.6853141780154925 3.247868999165124,-7.865777855760939 3.247868999165129 -12.121212121212116" /></g><path d="M 72.72727272727272,524.8638810814779 l 72.72727272727273,-41.989110486518214 " /><g><path d="M 145.45454545454544,524.8638810814779 c -11.594972690332135,-6.694360604009619 -26.42140676046162,-2.7216295682851435 -33.11576736447124 8.873343122046986c -2.1277171327255875,3.685314178015493 -3.2478689991651235,7.865777855760939 -3.247868999165128 12.121212121212118" /></g></g><g><g><path d="M 109.09090909090907,629.8366572977734 c 6.217248937900877e-15,-13.388721208019234 -10.853703034404994,-24.24242424242425 -24.24242424242422 -24.242424242424253c -4.255434265451178,2.220446049250313e-16 -8.435897943196625,1.1201518664395302 -12.12121212121212 3.2478689991651137" /></g><path d="M 145.45454545454544,608.8421020545143 l -72.72727272727269,-41.98911048651827 " /><g><path d="M 109.09090909090912,545.8584363247369 c -6.217248937900877e-15,13.388721208019234 10.853703034404994,24.242424242424246 24.24242424242422 24.24242424242425c 4.255434265451177,-4.440892098500626e-16 8.435897943196625,-1.1201518664395307 12.12121212121212 -3.2478689991651146" /></g></g><g><g><path d="M 145.45454545454544,650.8312125410325 c -11.594972690332135,6.694360604009617 -15.567703726056616,21.5207946741391 -8.873343122047 33.11576736447123c 2.1277171327255906,3.685314178015491 5.188028944031503,6.745625989321406 8.873343122046991 8.873343122046998" /></g><path d="M 109.0909090909091,629.8366572977734 v 83.97822097303647 " /><g><path d="M 72.72727272727273,692.8203230275508 c 11.594972690332135,-6.694360604009619 15.567703726056614,-21.520794674139104 8.873343122046997 -33.11576736447123c -2.127717132725591,-3.6853141780154908 -5.188028944031504,-6.745625989321405 -8.873343122046993 -8.873343122046997" /></g></g><g><g><path d="M 72.72727272727273,734.809433514069 c 11.594972690332133,6.69436060400962 26.42140676046162,2.7216295682851452 33.11576736447124 -8.873343122046983c 2.1277171327255875,-3.6853141780154925 3.247868999165124,-7.865777855760939 3.247868999165129 -12.121212121212116" /></g><path d="M 72.72727272727272,776.7985440005873 l 72.72727272727273,-41.989110486518214 " /><g><path d="M 145.45454545454544,776.7985440005873 c -11.594972690332135,-6.694360604009619 -26.42140676046162,-2.7216295682851435 -33.11576736447124 8.873343122046986c -2.1277171327255875,3.685314178015493 -3.2478689991651235,7.865777855760939 -3.247868999165128 12.121212121212118" /></g></g><g><g><path d="M 145.45454545454544,818.7876544871054 c -11.594972690332135,6.694360604009617 -15.567703726056616,21.5207946741391 -8.873343122047 33.11576736447123c 2.1277171327255906,3.685314178015491 5.188028944031503,6.745625989321406 8.873343122046991 8.873343122046998" /></g><path d="M 109.0909090909091,797.7930992438463 v 83.97822097303647 " /><g><path d="M 72.72727272727273,860.7767649736237 c 11.594972690332135,-6.694360604009619 15.567703726056614,-21.520794674139104 8.873343122046997 -33.11576736447123c -2.127717132725591,-3.6853141780154908 -5.188028944031504,-6.745625989321405 -8.873343122046993 -8.873343122046997" /></g></g><g><g><path d="M 145.45454545454544,902.765875460142 c -11.594972690332135,6.694360604009617 -15.567703726056616,21.5207946741391 -8.873343122047 33.11576736447123c 2.1277171327255906,3.685314178015491 5.188028944031503,6.745625989321406 8.873343122046991 8.873343122046998" /></g><path d="M 109.0909090909091,881.7713202168828 v 83.97822097303647 " /><g><path d="M 72.72727272727273,944.7549859466602 c 11.594972690332135,-6.694360604009619 15.567703726056614,-21.520794674139104 8.873343122046997 -33.11576736447123c -2.127717132725591,-3.6853141780154908 -5.188028944031504,-6.745625989321405 -8.873343122046993 -8.873343122046997" /></g></g><g><g><path d="M 36.36363636363635,83.97822097303639 c 6.217248937900877e-15,-13.388721208019234 -10.853703034404994,-24.24242424242425 -24.24242424242422 -24.242424242424253c -4.255434265451178,2.220446049250313e-16 -8.435897943196625,1.1201518664395302 -12.12121212121212 3.2478689991651137" /></g><path d="M 72.72727272727272,62.98366572977728 l -72.72727272727269,-41.98911048651827 " /><g><path d="M 36.363636363636395,-8.881784197001252e-14 c -6.217248937900877e-15,13.388721208019234 10.853703034404994,24.242424242424246 24.24242424242422 24.24242424242425c 4.255434265451177,-4.440892098500626e-16 8.435897943196625,-1.1201518664395307 12.12121212121212 -3.2478689991651146" /></g></g><g><g><path d="M 72.72727272727273,104.97277621629554 c -11.594972690332135,6.694360604009617 -15.567703726056616,21.5207946741391 -8.873343122047 33.11576736447123c 2.1277171327255906,3.685314178015491 5.188028944031503,6.745625989321406 8.873343122046991 8.873343122046998" /></g><path d="M 36.363636363636374,83.97822097303643 v 83.97822097303647 " /><g><path d="M 1.4210854715202004e-14,146.96188670281379 c 11.594972690332135,-6.694360604009619 15.567703726056614,-21.520794674139104 8.873343122046997 -33.11576736447123c -2.127717132725591,-3.6853141780154908 -5.188028944031504,-6.745625989321405 -8.873343122046993 -8.873343122046997" /></g></g><g><g><path d="M 36.36363636363635,251.9346629191093 c 6.217248937900877e-15,-13.388721208019234 -10.853703034404994,-24.24242424242425 -24.24242424242422 -24.242424242424253c -4.255434265451178,2.220446049250313e-16 -8.435897943196625,1.1201518664395302 -12.12121212121212 3.2478689991651137" /></g><path d="M 72.72727272727272,230.9401076758502 l -72.72727272727269,-41.98911048651827 " /><g><path d="M 36.363636363636395,167.95644194607283 c -6.217248937900877e-15,13.388721208019234 10.853703034404994,24.242424242424246 24.24242424242422 24.24242424242425c 4.255434265451177,-4.440892098500626e-16 8.435897943196625,-1.1201518664395307 12.12121212121212 -3.2478689991651146" /></g></g><g><g><path d="M 72.72727272727273,272.92921816236844 c -11.594972690332135,6.694360604009617 -15.567703726056616,21.5207946741391 -8.873343122047 33.11576736447123c 2.1277171327255906,3.685314178015491 5.188028944031503,6.745625989321406 8.873343122046991 8.873343122046998" /></g><path d="M 36.363636363636374,251.93466291910934 v 83.97822097303647 " /><g><path d="M 1.4210854715202004e-14,314.9183286488867 c 11.594972690332135,-6.694360604009619 15.567703726056614,-21.520794674139104 8.873343122046997 -33.11576736447123c -2.127717132725591,-3.6853141780154908 -5.188028944031504,-6.745625989321405 -8.873343122046993 -8.873343122046997" /></g></g><g><g><path d="M 1.7763568394002505e-14,356.90743913540484 c 11.594972690332133,6.69436060400962 26.42140676046162,2.7216295682851452 33.11576736447124 -8.873343122046983c 2.1277171327255875,-3.6853141780154925 3.247868999165124,-7.865777855760939 3.247868999165129 -12.121212121212116" /></g><path d="M 7.105427357601002e-15,398.8965496219231 l 72.72727272727273,-41.989110486518214 " /><g><path d="M 72.72727272727273,398.8965496219231 c -11.594972690332135,-6.694360604009619 -26.42140676046162,-2.7216295682851435 -33.11576736447124 8.873343122046986c -2.1277171327255875,3.685314178015493 -3.2478689991651235,7.865777855760939 -3.247868999165128 12.121212121212118" /></g></g><g><g><path d="M 36.36363636363635,503.8693258382187 c 6.217248937900877e-15,-13.388721208019234 -10.853703034404994,-24.24242424242425 -24.24242424242422 -24.242424242424253c -4.255434265451178,2.220446049250313e-16 -8.435897943196625,1.1201518664395302 -12.12121212121212 3.2478689991651137" /></g><path d="M 72.72727272727272,482.8747705949596 l -72.72727272727269,-41.98911048651827 " /><g><path d="M 36.363636363636395,419.8911048651823 c -6.217248937900877e-15,13.388721208019234 10.853703034404994,24.242424242424246 24.24242424242422 24.24242424242425c 4.255434265451177,-4.440892098500626e-16 8.435897943196625,-1.1201518664395307 12.12121212121212 -3.2478689991651146" /></g></g><g><g><path d="M 1.7763568394002505e-14,524.8638810814778 c 11.594972690332133,6.69436060400962 26.42140676046162,2.7216295682851452 33.11576736447124 -8.873343122046983c 2.1277171327255875,-3.6853141780154925 3.247868999165124,-7.865777855760939 3.247868999165129 -12.121212121212116" /></g><path d="M 7.105427357601002e-15,566.852991567996 l 72.72727272727273,-41.989110486518214 " /><g><path d="M 72.72727272727273,566.852991567996 c -11.594972690332135,-6.694360604009619 -26.42140676046162,-2.7216295682851435 -33.11576736447124 8.873343122046986c -2.1277171327255875,3.685314178015493 -3.2478689991651235,7.865777855760939 -3.247868999165128 12.121212121212118" /></g></g><g><g><path d="M 72.72727272727273,608.8421020545143 c -11.594972690332135,6.694360604009617 -15.567703726056616,21.5207946741391 -8.873343122047 33.11576736447123c 2.1277171327255906,3.685314178015491 5.188028944031503,6.745625989321406 8.873343122046991 8.873343122046998" /></g><path d="M 36.363636363636374,587.8475468112551 v 83.97822097303647 " /><g><path d="M 1.4210854715202004e-14,650.8312125410325 c 11.594972690332135,-6.694360604009619 15.567703726056614,-21.520794674139104 8.873343122046997 -33.11576736447123c -2.127717132725591,-3.6853141780154908 -5.188028944031504,-6.745625989321405 -8.873343122046993 -8.873343122046997" /></g></g><g><g><path d="M 72.72727272727273,692.8203230275508 c -11.594972690332135,6.694360604009617 -15.567703726056616,21.5207946741391 -8.873343122047 33.11576736447123c 2.1277171327255906,3.685314178015491 5.188028944031503,6.745625989321406 8.873343122046991 8.873343122046998" /></g><path d="M 36.363636363636374,671.8257677842917 v 83.97822097303647 " /><g><path d="M 1.4210854715202004e-14,734.809433514069 c 11.594972690332135,-6.694360604009619 15.567703726056614,-21.520794674139104 8.873343122046997 -33.11576736447123c -2.127717132725591,-3.6853141780154908 -5.188028944031504,-6.745625989321405 -8.873343122046993 -8.873343122046997" /></g></g><g><g><path d="M 36.36363636363635,839.7822097303646 c 6.217248937900877e-15,-13.388721208019234 -10.853703034404994,-24.24242424242425 -24.24242424242422 -24.242424242424253c -4.255434265451178,2.220446049250313e-16 -8.435897943196625,1.1201518664395302 -12.12121212121212 3.2478689991651137" /></g><path d="M 72.72727272727272,818.7876544871054 l -72.72727272727269,-41.98911048651827 " /><g><path d="M 36.363636363636395,755.803988757328 c -6.217248937900877e-15,13.388721208019234 10.853703034404994,24.242424242424246 24.24242424242422 24.24242424242425c 4.255434265451177,-4.440892098500626e-16 8.435897943196625,-1.1201518664395307 12.12121212121212 -3.2478689991651146" /></g></g><g><g><path d="M 72.72727272727273,860.7767649736237 c -11.594972690332135,6.694360604009617 -15.567703726056616,21.5207946741391 -8.873343122047 33.11576736447123c 2.1277171327255906,3.685314178015491 5.188028944031503,6.745625989321406 8.873343122046991 8.873343122046998" /></g><path d="M 36.363636363636374,839.7822097303646 v 83.97822097303647 " /><g><path d="M 1.4210854715202004e-14,902.765875460142 c 11.594972690332135,-6.694360604009619 15.567703726056614,-21.520794674139104 8.873343122046997 -33.11576736447123c -2.127717132725591,-3.6853141780154908 -5.188028944031504,-6.745625989321405 -8.873343122046993 -8.873343122046997" /></g></g></g></g></g></svg>