<?xml version="1.0" encoding="UTF-8"?>
<!DOCTYPE svg PUBLIC "-//W3C//DTD SVG 1.1//EN"
    "http://www.w3.org/Graphics/SVG/1.1/DTD/svg11.dtd">
<svg xmlns="http://www.w3.org/2000/svg" xmlns:xlink="http://www.w3.org/1999/xlink" version="1.1" width="800.0" height="910.5638531219238" font-size="1" viewBox="0 0 800 911" stroke="rgb(0,0,0)" stroke-opacity="1"><g><g fill="rgb(0,0,0)" fill-opacity="0.0"><g stroke="rgb(0,0,0)" stroke-opacity="1.0" stroke-width="3.4139738311768917" stroke-linecap="butt" stroke-linejoin="miter" font-size="1.0em" stroke-miterlimit="10.0"><g><g><g><path d="M 777.1428571428569,79.1794654888629 c 6.217248937900877e-15,-12.623651424703844 -10.233491432438989,-22.857142857142854 -22.857142857142833 -22.857142857142858c -4.01226659313968,2.220446049250313e-16 -7.953846632156814,1.0561431883572712 -11.428571428571423 3.0622764849271054" /></g><path d="M 811.4285714285711,59.384599116647195 l -68.57142857142851,-39.5897327444315 " /><g><path d="M 777.1428571428569,-1.7763568394002505e-14 c -5.329070518200751e-15,12.623651424703844 10.233491432438989,22.85714285714285 22.857142857142833 22.857142857142854c 4.01226659313968,-4.440892098500626e-16 7.953846632156814,-1.0561431883572716 11.428571428571423 -3.0622764849271062" /></g></g><g><g><path d="M 811.4285714285711,98.97433186107872 c -10.93240282231315,6.311825712351922 -14.678120655996231,20.291034978474 -8.366294943644311 31.22343780078715c 2.0061332965698417,3.4747247964146046 4.8915701472297,6.360161647074466 8.366294943644302 8.36629494364431" /></g><path d="M 777.1428571428569,79.17946548886299 v 79.17946548886292 " /><g><path d="M 742.8571428571427,138.56406460551017 c 10.93240282231315,-6.311825712351924 14.67812065599623,-20.291034978474002 8.366294943644307 -31.22343780078715c -2.006133296569842,-3.474724796414604 -4.891570147229701,-6.360161647074465 -8.366294943644304 -8.366294943644307" /></g></g><g><g><path d="M 742.8571428571425,178.15379734994158 c 10.932402822313149,6.311825712351924 24.911612088435227,2.5661078786688503 31.223437800787146 -8.366294943644295c 2.0061332965698386,-3.4747247964146055 3.0622764849271142,-7.416304835431738 3.0622764849271196 -11.428571428571416" /></g><path d="M 742.8571428571427,217.74353009437306 l 68.57142857142854,-39.589732744431444 " /><g><path d="M 811.4285714285712,217.74353009437309 c -10.93240282231315,-6.311825712351923 -24.91161208843523,-2.5661078786688485 -31.22343780078715 8.366294943644299c -2.006133296569838,3.474724796414606 -3.062276484927114,7.416304835431739 -3.0622764849271187 11.428571428571418" /></g></g><g><g><path d="M 742.8571428571425,257.3332628388046 c 10.932402822313149,6.311825712351924 24.911612088435227,2.5661078786688503 31.223437800787146 -8.366294943644295c 2.0061332965698386,-3.4747247964146055 3.0622764849271142,-7.416304835431738 3.0622764849271196 -11.428571428571416" /></g><path d="M 742.8571428571427,296.92299558323606 l 68.57142857142854,-39.589732744431444 " /><g><path d="M 811.4285714285712,296.92299558323606 c -10.93240282231315,-6.311825712351923 -24.91161208843523,-2.5661078786688485 -31.22343780078715 8.366294943644299c -2.006133296569838,3.474724796414606 -3.062276484927114,7.416304835431739 -3.0622764849271187 11.428571428571418" /></g></g><g><g><path d="M 742.8571428571425,336.5127283276675 c 10.932402822313149,6.311825712351924 24.911612088435227,2.5661078786688503 31.223437800787146 -8.366294943644295c 2.0061332965698386,-3.4747247964146055 3.0622764849271142,-7.416304835431738 3.0622764849271196 -11.428571428571416" /></g><path d="M 742.8571428571427,376.10246107209895 l 68.57142857142854,-39.589732744431444 " /><g><path d="M 811.4285714285712,376.10246107209895 c -10.93240282231315,-6.311825712351923 -24.91161208843523,-2.5661078786688485 -31.22343780078715 8.366294943644299c -2.006133296569838,3.474724796414606 -3.062276484927114,7.416304835431739 -3.0622764849271187 11.428571428571418" /></g></g><g><g><path d="M 777.1428571428569,475.0767929331776 c 6.217248937900877e-15,-12.623651424703844 -10.233491432438989,-22.857142857142854 -22.857142857142833 -22.857142857142858c -4.01226659313968,2.220446049250313e-16 -7.953846632156814,1.0561431883572712 -11.428571428571423 3.0622764849271054" /></g><path d="M 811.4285714285711,455.2819265609619 l -68.57142857142851,-39.5897327444315 " /><g><path d="M 777.1428571428569,395.8973274443147 c -5.329070518200751e-15,12.623651424703844 10.233491432438989,22.85714285714285 22.857142857142833 22.857142857142854c 4.01226659313968,-4.440892098500626e-16 7.953846632156814,-1.0561431883572716 11.428571428571423 -3.0622764849271062" /></g></g><g><g><path d="M 811.4285714285711,494.8716593053934 c -10.93240282231315,6.311825712351922 -14.678120655996231,20.291034978474 -8.366294943644311 31.22343780078715c 2.0061332965698417,3.4747247964146046 4.8915701472297,6.360161647074466 8.366294943644302 8.36629494364431" /></g><path d="M 777.1428571428569,475.07679293317767 v 79.17946548886292 " /><g><path d="M 742.8571428571427,534.4613920498249 c 10.93240282231315,-6.311825712351924 14.67812065599623,-20.291034978474002 8.366294943644307 -31.22343780078715c -2.006133296569842,-3.474724796414604 -4.891570147229701,-6.360161647074465 -8.366294943644304 -8.366294943644307" /></g></g><g><g><path d="M 777.1428571428569,633.4357239109034 c 6.217248937900877e-15,-12.623651424703844 -10.233491432438989,-22.857142857142854 -22.857142857142833 -22.857142857142858c -4.01226659313968,2.220446049250313e-16 -7.953846632156814,1.0561431883572712 -11.428571428571423 3.0622764849271054" /></g><path d="M 811.4285714285711,613.6408575386878 l -68.57142857142851,-39.5897327444315 " /><g><path d="M 777.1428571428569,554.2562584220406 c -5.329070518200751e-15,12.623651424703844 10.233491432438989,22.85714285714285 22.857142857142833 22.857142857142854c 4.01226659313968,-4.440892098500626e-16 7.953846632156814,-1.0561431883572716 11.428571428571423 -3.0622764849271062" /></g></g><g><g><path d="M 777.1428571428569,712.6151893997663 c 6.217248937900877e-15,-12.623651424703844 -10.233491432438989,-22.857142857142854 -22.857142857142833 -22.857142857142858c -4.01226659313968,2.220446049250313e-16 -7.953846632156814,1.0561431883572712 -11.428571428571423 3.0622764849271054" /></g><path d="M 811.4285714285711,692.8203230275507 l -68.57142857142851,-39.5897327444315 " /><g><path d="M 777.1428571428569,633.4357239109034 c -5.329070518200751e-15,12.623651424703844 10.233491432438989,22.85714285714285 22.857142857142833 22.857142857142854c 4.01226659313968,-4.440892098500626e-16 7.953846632156814,-1.0561431883572716 11.428571428571423 -3.0622764849271062" /></g></g><g><g><path d="M 777.1428571428569,791.7946548886292 c 6.217248937900877e-15,-12.623651424703844 -10.233491432438989,-22.857142857142854 -22.857142857142833 -22.857142857142858c -4.01226659313968,2.220446049250313e-16 -7.953846632156814,1.0561431883572712 -11.428571428571423 3.0622764849271054" /></g><path d="M 811.4285714285711,771.9997885164136 l -68.57142857142851,-39.5897327444315 " /><g><path d="M 777.1428571428569,712.6151893997663 c -5.329070518200751e-15,12.623651424703844 10.233491432438989,22.85714285714285 22.857142857142833 22.857142857142854c 4.01226659313968,-4.440892098500626e-16 7.953846632156814,-1.0561431883572716 11.428571428571423 -3.0622764849271062" /></g></g><g><g><path d="M 742.8571428571425,811.5895212608451 c 10.932402822313149,6.311825712351924 24.911612088435227,2.5661078786688503 31.223437800787146 -8.366294943644295c 2.0061332965698386,-3.4747247964146055 3.0622764849271142,-7.416304835431738 3.0622764849271196 -11.428571428571416" /></g><path d="M 742.8571428571427,851.1792540052766 l 68.57142857142854,-39.589732744431444 " /><g><path d="M 811.4285714285712,851.1792540052764 c -10.93240282231315,-6.311825712351923 -24.91161208843523,-2.5661078786688485 -31.22343780078715 8.366294943644299c -2.006133296569838,3.474724796414606 -3.062276484927114,7.416304835431739 -3.0622764849271187 11.428571428571418" /></g></g><g><g><path d="M 811.4285714285711,890.7689867497079 c -10.93240282231315,6.311825712351922 -14.678120655996231,20.291034978474 -8.366294943644311 31.22343780078715c 2.0061332965698417,3.4747247964146046 4.8915701472297,6.360161647074466 8.366294943644302 8.36629494364431" /></g><path d="M 777.1428571428569,870.9741203774922 v 79.17946548886292 " /><g><path d="M 742.8571428571427,930.3587194941395 c 10.93240282231315,-6.311825712351924 14.67812065599623,-20.291034978474002 8.366294943644307 -31.22343780078715c -2.006133296569842,-3.474724796414604 -4.891570147229701,-6.360161647074465 -8.366294943644304 -8.366294943644307" /></g></g><g><g><path d="M 708.5714285714282,39.58973274443157 c 6.217248937900877e-15,-12.623651424703844 -10.233491432438989,-22.857142857142854 -22.857142857142833 -22.857142857142858c -4.01226659313968,2.220446049250313e-16 -7.953846632156814,1.0561431883572712 -11.428571428571423 3.0622764849271054" /></g><path d="M 742.8571428571424,19.794866372215864 l -68.57142857142851,-39.5897327444315 " /><g><path d="M 708.5714285714282,-39.589732744431345 c -5.329070518200751e-15,12.623651424703844 10.233491432438989,22.85714285714285 22.857142857142833 22.857142857142854c 4.01226659313968,-4.440892098500626e-16 7.953846632156814,-1.0561431883572716 11.428571428571423 -3.0622764849271062" /></g></g><g><g><path d="M 674.2857142857139,59.384599116647266 c 10.932402822313149,6.311825712351924 24.911612088435227,2.5661078786688503 31.223437800787146 -8.366294943644295c 2.0061332965698386,-3.4747247964146055 3.0622764849271142,-7.416304835431738 3.0622764849271196 -11.428571428571416" /></g><path d="M 674.285714285714,98.97433186107872 l 68.57142857142854,-39.589732744431444 " /><g><path d="M 742.8571428571425,98.97433186107875 c -10.93240282231315,-6.311825712351923 -24.91161208843523,-2.5661078786688485 -31.22343780078715 8.366294943644299c -2.006133296569838,3.474724796414606 -3.062276484927114,7.416304835431739 -3.0622764849271187 11.428571428571418" /></g></g><g><g><path d="M 708.5714285714282,197.94866372215733 c 6.217248937900877e-15,-12.623651424703844 -10.233491432438989,-22.857142857142854 -22.857142857142833 -22.857142857142858c -4.01226659313968,2.220446049250313e-16 -7.953846632156814,1.0561431883572712 -11.428571428571423 3.0622764849271054" /></g><path d="M 742.8571428571424,178.15379734994164 l -68.57142857142851,-39.5897327444315 " /><g><path d="M 708.5714285714282,118.76919823329443 c -5.329070518200751e-15,12.623651424703844 10.233491432438989,22.85714285714285 22.857142857142833 22.857142857142854c 4.01226659313968,-4.440892098500626e-16 7.953846632156814,-1.0561431883572716 11.428571428571423 -3.0622764849271062" /></g></g><g><g><path d="M 708.5714285714282,277.12812921102034 c 6.217248937900877e-15,-12.623651424703844 -10.233491432438989,-22.857142857142854 -22.857142857142833 -22.857142857142858c -4.01226659313968,2.220446049250313e-16 -7.953846632156814,1.0561431883572712 -11.428571428571423 3.0622764849271054" /></g><path d="M 742.8571428571424,257.33326283880467 l -68.57142857142851,-39.5897327444315 " /><g><path d="M 708.5714285714282,197.94866372215745 c -5.329070518200751e-15,12.623651424703844 10.233491432438989,22.85714285714285 22.857142857142833 22.857142857142854c 4.01226659313968,-4.440892098500626e-16 7.953846632156814,-1.0561431883572716 11.428571428571423 -3.0622764849271062" /></g></g><g><g><path d="M 708.5714285714282,356.3075946998832 c 6.217248937900877e-15,-12.623651424703844 -10.233491432438989,-22.857142857142854 -22.857142857142833 -22.857142857142858c -4.01226659313968,2.220446049250313e-16 -7.953846632156814,1.0561431883572712 -11.428571428571423 3.0622764849271054" /></g><path d="M 742.8571428571424,336.51272832766756 l -68.57142857142851,-39.5897327444315 " /><g><path d="M 708.5714285714282,277.12812921102034 c -5.329070518200751e-15,12.623651424703844 10.233491432438989,22.85714285714285 22.857142857142833 22.857142857142854c 4.01226659313968,-4.440892098500626e-16 7.953846632156814,-1.0561431883572716 11.428571428571423 -3.0622764849271062" /></g></g><g><g><path d="M 708.5714285714282,435.4870601887461 c 6.217248937900877e-15,-12.623651424703844 -10.233491432438989,-22.857142857142854 -22.857142857142833 -22.857142857142858c -4.01226659313968,2.220446049250313e-16 -7.953846632156814,1.0561431883572712 -11.428571428571423 3.0622764849271054" /></g><path d="M 742.8571428571424,415.69219381653045 l -68.57142857142851,-39.5897327444315 " /><g><path d="M 708.5714285714282,356.3075946998832 c -5.329070518200751e-15,12.623651424703844 10.233491432438989,22.85714285714285 22.857142857142833 22.857142857142854c 4.01226659313968,-4.440892098500626e-16 7.953846632156814,-1.0561431883572716 11.428571428571423 -3.0622764849271062" /></g></g><g><g><path d="M 708.5714285714282,514.6665256776091 c 6.217248937900877e-15,-12.623651424703844 -10.233491432438989,-22.857142857142854 -22.857142857142833 -22.857142857142858c -4.01226659313968,2.220446049250313e-16 -7.953846632156814,1.0561431883572712 -11.428571428571423 3.0622764849271054" /></g><path d="M 742.8571428571424,494.87165930539334 l -68.57142857142851,-39.5897327444315 " /><g><path d="M 708.5714285714282,435.48706018874617 c -5.329070518200751e-15,12.623651424703844 10.233491432438989,22.85714285714285 22.857142857142833 22.857142857142854c 4.01226659313968,-4.440892098500626e-16 7.953846632156814,-1.0561431883572716 11.428571428571423 -3.0622764849271062" /></g></g><g><g><path d="M 742.8571428571424,534.4613920498248 c -10.93240282231315,6.311825712351922 -14.678120655996231,20.291034978474 -8.366294943644311 31.22343780078715c 2.0061332965698417,3.4747247964146046 4.8915701472297,6.360161647074466 8.366294943644302 8.36629494364431" /></g><path d="M 708.5714285714282,514.6665256776091 v 79.17946548886292 " /><g><path d="M 674.285714285714,574.0511247942563 c 10.93240282231315,-6.311825712351924 14.67812065599623,-20.291034978474002 8.366294943644307 -31.22343780078715c -2.006133296569842,-3.474724796414604 -4.891570147229701,-6.360161647074465 -8.366294943644304 -8.366294943644307" /></g></g><g><g><path d="M 742.8571428571424,613.6408575386877 c -10.93240282231315,6.311825712351922 -14.678120655996231,20.291034978474 -8.366294943644311 31.22343780078715c 2.0061332965698417,3.4747247964146046 4.8915701472297,6.360161647074466 8.366294943644302 8.36629494364431" /></g><path d="M 708.5714285714282,593.845991166472 v 79.17946548886292 " /><g><path d="M 674.285714285714,653.2305902831192 c 10.93240282231315,-6.311825712351924 14.67812065599623,-20.291034978474002 8.366294943644307 -31.22343780078715c -2.006133296569842,-3.474724796414604 -4.891570147229701,-6.360161647074465 -8.366294943644304 -8.366294943644307" /></g></g><g><g><path d="M 674.2857142857139,692.8203230275508 c 10.932402822313149,6.311825712351924 24.911612088435227,2.5661078786688503 31.223437800787146 -8.366294943644295c 2.0061332965698386,-3.4747247964146055 3.0622764849271142,-7.416304835431738 3.0622764849271196 -11.428571428571416" /></g><path d="M 674.285714285714,732.4100557719821 l 68.57142857142854,-39.589732744431444 " /><g><path d="M 742.8571428571425,732.4100557719821 c -10.93240282231315,-6.311825712351923 -24.91161208843523,-2.5661078786688485 -31.22343780078715 8.366294943644299c -2.006133296569838,3.474724796414606 -3.062276484927114,7.416304835431739 -3.0622764849271187 11.428571428571418" /></g></g><g><g><path d="M 742.8571428571424,771.9997885164136 c -10.93240282231315,6.311825712351922 -14.678120655996231,20.291034978474 -8.366294943644311 31.22343780078715c 2.0061332965698417,3.4747247964146046 4.8915701472297,6.360161647074466 8.366294943644302 8.36629494364431" /></g><path d="M 708.5714285714282,752.2049221441979 v 79.17946548886292 " /><g><path d="M 674.285714285714,811.5895212608451 c 10.93240282231315,-6.311825712351924 14.67812065599623,-20.291034978474002 8.366294943644307 -31.22343780078715c -2.006133296569842,-3.474724796414604 -4.891570147229701,-6.360161647074465 -8.366294943644304 -8.366294943644307" /></g></g><g><g><path d="M 742.8571428571424,851.1792540052764 c -10.93240282231315,6.311825712351922 -14.678120655996231,20.291034978474 -8.366294943644311 31.22343780078715c 2.0061332965698417,3.4747247964146046 4.8915701472297,6.360161647074466 8.366294943644302 8.36629494364431" /></g><path d="M 708.5714285714282,831.3843876330608 v 79.17946548886292 " /><g><path d="M 674.285714285714,890.768986749708 c 10.93240282231315,-6.311825712351924 14.67812065599623,-20.291034978474002 8.366294943644307 -31.22343780078715c -2.006133296569842,-3.474724796414604 -4.891570147229701,-6.360161647074465 -8.366294943644304 -8.366294943644307" /></g></g><g><g><path d="M 674.285714285714,19.794866372215715 c -10.93240282231315,6.311825712351922 -14.678120655996231,20.291034978474 -8.366294943644311 31.22343780078715c 2.0061332965698417,3.4747247964146046 4.8915701472297,6.360161647074466 8.366294943644302 8.36629494364431" /></g><path d="M 639.9999999999998,-1.4210854715202004e-14 v 79.17946548886292 " /><g><path d="M 605.7142857142856,59.38459911664717 c 10.93240282231315,-6.311825712351924 14.67812065599623,-20.291034978474002 8.366294943644307 -31.22343780078715c -2.006133296569842,-3.474724796414604 -4.891570147229701,-6.360161647074465 -8.366294943644304 -8.366294943644307" /></g></g><g><g><path d="M 605.7142857142854,98.9743318610787 c 10.932402822313149,6.311825712351924 24.911612088435227,2.5661078786688503 31.223437800787146 -8.366294943644295c 2.0061332965698386,-3.4747247964146055 3.0622764849271142,-7.416304835431738 3.0622764849271196 -11.428571428571416" /></g><path d="M 605.7142857142856,138.56406460551017 l 68.57142857142854,-39.589732744431444 " /><g><path d="M 674.2857142857141,138.5640646055102 c -10.93240282231315,-6.311825712351923 -24.91161208843523,-2.5661078786688485 -31.22343780078715 8.366294943644299c -2.006133296569838,3.474724796414606 -3.062276484927114,7.416304835431739 -3.0622764849271187 11.428571428571418" /></g></g><g><g><path d="M 674.285714285714,178.1537973499416 c -10.93240282231315,6.311825712351922 -14.678120655996231,20.291034978474 -8.366294943644311 31.22343780078715c 2.0061332965698417,3.4747247964146046 4.8915701472297,6.360161647074466 8.366294943644302 8.36629494364431" /></g><path d="M 639.9999999999998,158.3589309777259 v 79.17946548886292 " /><g><path d="M 605.7142857142856,217.74353009437306 c 10.93240282231315,-6.311825712351924 14.67812065599623,-20.291034978474002 8.366294943644307 -31.22343780078715c -2.006133296569842,-3.474724796414604 -4.891570147229701,-6.360161647074465 -8.366294943644304 -8.366294943644307" /></g></g><g><g><path d="M 674.285714285714,257.3332628388046 c -10.93240282231315,6.311825712351922 -14.678120655996231,20.291034978474 -8.366294943644311 31.22343780078715c 2.0061332965698417,3.4747247964146046 4.8915701472297,6.360161647074466 8.366294943644302 8.36629494364431" /></g><path d="M 639.9999999999998,237.5383964665889 v 79.17946548886292 " /><g><path d="M 605.7142857142856,296.92299558323606 c 10.93240282231315,-6.311825712351924 14.67812065599623,-20.291034978474002 8.366294943644307 -31.22343780078715c -2.006133296569842,-3.474724796414604 -4.891570147229701,-6.360161647074465 -8.366294943644304 -8.366294943644307" /></g></g><g><g><path d="M 639.9999999999998,395.89732744431467 c 6.217248937900877e-15,-12.623651424703844 -10.233491432438989,-22.857142857142854 -22.857142857142833 -22.857142857142858c -4.01226659313968,2.220446049250313e-16 -7.953846632156814,1.0561431883572712 -11.428571428571423 3.0622764849271054" /></g><path d="M 674.285714285714,376.102461072099 l -68.57142857142851,-39.5897327444315 " /><g><path d="M 639.9999999999998,316.7178619554518 c -5.329070518200751e-15,12.623651424703844 10.233491432438989,22.85714285714285 22.857142857142833 22.857142857142854c 4.01226659313968,-4.440892098500626e-16 7.953846632156814,-1.0561431883572716 11.428571428571423 -3.0622764849271062" /></g></g><g><g><path d="M 605.7142857142854,415.69219381653045 c 10.932402822313149,6.311825712351924 24.911612088435227,2.5661078786688503 31.223437800787146 -8.366294943644295c 2.0061332965698386,-3.4747247964146055 3.0622764849271142,-7.416304835431738 3.0622764849271196 -11.428571428571416" /></g><path d="M 605.7142857142856,455.2819265609619 l 68.57142857142854,-39.589732744431444 " /><g><path d="M 674.2857142857141,455.2819265609619 c -10.93240282231315,-6.311825712351923 -24.91161208843523,-2.5661078786688485 -31.22343780078715 8.366294943644299c -2.006133296569838,3.474724796414606 -3.062276484927114,7.416304835431739 -3.0622764849271187 11.428571428571418" /></g></g><g><g><path d="M 639.9999999999998,554.2562584220406 c 6.217248937900877e-15,-12.623651424703844 -10.233491432438989,-22.857142857142854 -22.857142857142833 -22.857142857142858c -4.01226659313968,2.220446049250313e-16 -7.953846632156814,1.0561431883572712 -11.428571428571423 3.0622764849271054" /></g><path d="M 674.285714285714,534.4613920498249 l -68.57142857142851,-39.5897327444315 " /><g><path d="M 639.9999999999998,475.07679293317767 c -5.329070518200751e-15,12.623651424703844 10.233491432438989,22.85714285714285 22.857142857142833 22.857142857142854c 4.01226659313968,-4.440892098500626e-16 7.953846632156814,-1.0561431883572716 11.428571428571423 -3.0622764849271062" /></g></g><g><g><path d="M 639.9999999999998,633.4357239109034 c 6.217248937900877e-15,-12.623651424703844 -10.233491432438989,-22.857142857142854 -22.857142857142833 -22.857142857142858c -4.01226659313968,2.220446049250313e-16 -7.953846632156814,1.0561431883572712 -11.428571428571423 3.0622764849271054" /></g><path d="M 674.285714285714,613.6408575386878 l -68.57142857142851,-39.5897327444315 " /><g><path d="M 639.9999999999998,554.2562584220406 c -5.329070518200751e-15,12.623651424703844 10.233491432438989,22.85714285714285 22.857142857142833 22.857142857142854c 4.01226659313968,-4.440892098500626e-16 7.953846632156814,-1.0561431883572716 11.428571428571423 -3.0622764849271062" /></g></g><g><g><path d="M 639.9999999999998,712.6151893997663 c 6.217248937900877e-15,-12.623651424703844 -10.233491432438989,-22.857142857142854 -22.857142857142833 -22.857142857142858c -4.01226659313968,2.220446049250313e-16 -7.953846632156814,1.0561431883572712 -11.428571428571423 3.0622764849271054" /></g><path d="M 674.285714285714,692.8203230275507 l -68.57142857142851,-39.5897327444315 " /><g><path d="M 639.9999999999998,633.4357239109034 c -5.329070518200751e-15,12.623651424703844 10.233491432438989,22.85714285714285 22.857142857142833 22.857142857142854c 4.01226659313968,-4.440892098500626e-16 7.953846632156814,-1.0561431883572716 11.428571428571423 -3.0622764849271062" /></g></g><g><g><path d="M 674.285714285714,732.410055771982 c -10.93240282231315,6.311825712351922 -14.678120655996231,20.291034978474 -8.366294943644311 31.22343780078715c 2.0061332965698417,3.4747247964146046 4.8915701472297,6.360161647074466 8.366294943644302 8.36629494364431" /></g><path d="M 639.9999999999998,712.6151893997663 v 79.17946548886292 " /><g><path d="M 605.7142857142856,771.9997885164136 c 10.93240282231315,-6.311825712351924 14.67812065599623,-20.291034978474002 8.366294943644307 -31.22343780078715c -2.006133296569842,-3.474724796414604 -4.891570147229701,-6.360161647074465 -8.366294943644304 -8.366294943644307" /></g></g><g><g><path d="M 674.285714285714,811.589521260845 c -10.93240282231315,6.311825712351922 -14.678120655996231,20.291034978474 -8.366294943644311 31.22343780078715c 2.0061332965698417,3.4747247964146046 4.8915701472297,6.360161647074466 8.366294943644302 8.36629494364431" /></g><path d="M 639.9999999999998,791.7946548886293 v 79.17946548886292 " /><g><path d="M 605.7142857142856,851.1792540052766 c 10.93240282231315,-6.311825712351924 14.67812065599623,-20.291034978474002 8.366294943644307 -31.22343780078715c -2.006133296569842,-3.474724796414604 -4.891570147229701,-6.360161647074465 -8.366294943644304 -8.366294943644307" /></g></g><g><g><path d="M 674.285714285714,890.7689867497079 c -10.93240282231315,6.311825712351922 -14.678120655996231,20.291034978474 -8.366294943644311 31.22343780078715c 2.0061332965698417,3.4747247964146046 4.8915701472297,6.360161647074466 8.366294943644302 8.36629494364431" /></g><path d="M 639.9999999999998,870.9741203774922 v 79.17946548886292 " /><g><path d="M 605.7142857142856,930.3587194941395 c 10.93240282231315,-6.311825712351924 14.67812065599623,-20.291034978474002 8.366294943644307 -31.22343780078715c -2.006133296569842,-3.474724796414604 -4.891570147229701,-6.360161647074465 -8.366294943644304 -8.366294943644307" /></g></g><g><g><path d="M 571.4285714285711,39.58973274443157 c 6.217248937900877e-15,-12.623651424703844 -10.233491432438989,-22.857142857142854 -22.857142857142833 -22.857142857142858c -4.01226659313968,2.220446049250313e-16 -7.953846632156814,1.0561431883572712 -11.428571428571423 3.0622764849271054" /></g><path d="M 605.7142857142853,19.794866372215864 l -68.57142857142851,-39.5897327444315 " /><g><path d="M 571.4285714285711,-39.589732744431345 c -5.329070518200751e-15,12.623651424703844 10.233491432438989,22.85714285714285 22.857142857142833 22.857142857142854c 4.01226659313968,-4.440892098500626e-16 7.953846632156814,-1.0561431883572716 11.428571428571423 -3.0622764849271062" /></g></g><g><g><path d="M 571.4285714285711,118.76919823329446 c 6.217248937900877e-15,-12.623651424703844 -10.233491432438989,-22.857142857142854 -22.857142857142833 -22.857142857142858c -4.01226659313968,2.220446049250313e-16 -7.953846632156814,1.0561431883572712 -11.428571428571423 3.0622764849271054" /></g><path d="M 605.7142857142853,98.97433186107875 l -68.57142857142851,-39.5897327444315 " /><g><path d="M 571.4285714285711,39.589732744431544 c -5.329070518200751e-15,12.623651424703844 10.233491432438989,22.85714285714285 22.857142857142833 22.857142857142854c 4.01226659313968,-4.440892098500626e-16 7.953846632156814,-1.0561431883572716 11.428571428571423 -3.0622764849271062" /></g></g><g><g><path d="M 605.7142857142853,138.56406460551017 c -10.93240282231315,6.311825712351922 -14.678120655996231,20.291034978474 -8.366294943644311 31.22343780078715c 2.0061332965698417,3.4747247964146046 4.8915701472297,6.360161647074466 8.366294943644302 8.36629494364431" /></g><path d="M 571.4285714285711,118.76919823329443 v 79.17946548886292 " /><g><path d="M 537.1428571428569,178.1537973499416 c 10.93240282231315,-6.311825712351924 14.67812065599623,-20.291034978474002 8.366294943644307 -31.22343780078715c -2.006133296569842,-3.474724796414604 -4.891570147229701,-6.360161647074465 -8.366294943644304 -8.366294943644307" /></g></g><g><g><path d="M 537.1428571428568,217.74353009437314 c 10.932402822313149,6.311825712351924 24.911612088435227,2.5661078786688503 31.223437800787146 -8.366294943644295c 2.0061332965698386,-3.4747247964146055 3.0622764849271142,-7.416304835431738 3.0622764849271196 -11.428571428571416" /></g><path d="M 537.1428571428569,257.3332628388046 l 68.57142857142854,-39.589732744431444 " /><g><path d="M 605.7142857142854,257.3332628388046 c -10.93240282231315,-6.311825712351923 -24.91161208843523,-2.5661078786688485 -31.22343780078715 8.366294943644299c -2.006133296569838,3.474724796414606 -3.062276484927114,7.416304835431739 -3.0622764849271187 11.428571428571418" /></g></g><g><g><path d="M 537.1428571428568,296.92299558323606 c 10.932402822313149,6.311825712351924 24.911612088435227,2.5661078786688503 31.223437800787146 -8.366294943644295c 2.0061332965698386,-3.4747247964146055 3.0622764849271142,-7.416304835431738 3.0622764849271196 -11.428571428571416" /></g><path d="M 537.1428571428569,336.5127283276675 l 68.57142857142854,-39.589732744431444 " /><g><path d="M 605.7142857142854,336.5127283276675 c -10.93240282231315,-6.311825712351923 -24.91161208843523,-2.5661078786688485 -31.22343780078715 8.366294943644299c -2.006133296569838,3.474724796414606 -3.062276484927114,7.416304835431739 -3.0622764849271187 11.428571428571418" /></g></g><g><g><path d="M 605.7142857142853,376.10246107209895 c -10.93240282231315,6.311825712351922 -14.678120655996231,20.291034978474 -8.366294943644311 31.22343780078715c 2.0061332965698417,3.4747247964146046 4.8915701472297,6.360161647074466 8.366294943644302 8.36629494364431" /></g><path d="M 571.4285714285711,356.3075946998832 v 79.17946548886292 " /><g><path d="M 537.1428571428569,415.6921938165304 c 10.93240282231315,-6.311825712351924 14.67812065599623,-20.291034978474002 8.366294943644307 -31.22343780078715c -2.006133296569842,-3.474724796414604 -4.891570147229701,-6.360161647074465 -8.366294943644304 -8.366294943644307" /></g></g><g><g><path d="M 571.4285714285711,514.6665256776091 c 6.217248937900877e-15,-12.623651424703844 -10.233491432438989,-22.857142857142854 -22.857142857142833 -22.857142857142858c -4.01226659313968,2.220446049250313e-16 -7.953846632156814,1.0561431883572712 -11.428571428571423 3.0622764849271054" /></g><path d="M 605.7142857142853,494.87165930539334 l -68.57142857142851,-39.5897327444315 " /><g><path d="M 571.4285714285711,435.48706018874617 c -5.329070518200751e-15,12.623651424703844 10.233491432438989,22.85714285714285 22.857142857142833 22.857142857142854c 4.01226659313968,-4.440892098500626e-16 7.953846632156814,-1.0561431883572716 11.428571428571423 -3.0622764849271062" /></g></g><g><g><path d="M 605.7142857142853,534.4613920498248 c -10.93240282231315,6.311825712351922 -14.678120655996231,20.291034978474 -8.366294943644311 31.22343780078715c 2.0061332965698417,3.4747247964146046 4.8915701472297,6.360161647074466 8.366294943644302 8.36629494364431" /></g><path d="M 571.4285714285711,514.6665256776091 v 79.17946548886292 " /><g><path d="M 537.1428571428569,574.0511247942563 c 10.93240282231315,-6.311825712351924 14.67812065599623,-20.291034978474002 8.366294943644307 -31.22343780078715c -2.006133296569842,-3.474724796414604 -4.891570147229701,-6.360161647074465 -8.366294943644304 -8.366294943644307" /></g></g><g><g><path d="M 537.1428571428568,613.6408575386878 c 10.932402822313149,6.311825712351924 24.911612088435227,2.5661078786688503 31.223437800787146 -8.366294943644295c 2.0061332965698386,-3.4747247964146055 3.0622764849271142,-7.416304835431738 3.0622764849271196 -11.428571428571416" /></g><path d="M 537.1428571428569,653.2305902831192 l 68.57142857142854,-39.589732744431444 " /><g><path d="M 605.7142857142854,653.2305902831191 c -10.93240282231315,-6.311825712351923 -24.91161208843523,-2.5661078786688485 -31.22343780078715 8.366294943644299c -2.006133296569838,3.474724796414606 -3.062276484927114,7.416304835431739 -3.0622764849271187 11.428571428571418" /></g></g><g><g><path d="M 605.7142857142853,692.8203230275507 c -10.93240282231315,6.311825712351922 -14.678120655996231,20.291034978474 -8.366294943644311 31.22343780078715c 2.0061332965698417,3.4747247964146046 4.8915701472297,6.360161647074466 8.366294943644302 8.36629494364431" /></g><path d="M 571.4285714285711,673.025456655335 v 79.17946548886292 " /><g><path d="M 537.1428571428569,732.4100557719822 c 10.93240282231315,-6.311825712351924 14.67812065599623,-20.291034978474002 8.366294943644307 -31.22343780078715c -2.006133296569842,-3.474724796414604 -4.891570147229701,-6.360161647074465 -8.366294943644304 -8.366294943644307" /></g></g><g><g><path d="M 537.1428571428568,771.9997885164137 c 10.932402822313149,6.311825712351924 24.911612088435227,2.5661078786688503 31.223437800787146 -8.366294943644295c 2.0061332965698386,-3.4747247964146055 3.0622764849271142,-7.416304835431738 3.0622764849271196 -11.428571428571416" /></g><path d="M 537.1428571428569,811.589521260845 l 68.57142857142854,-39.589732744431444 " /><g><path d="M 605.7142857142854,811.589521260845 c -10.93240282231315,-6.311825712351923 -24.91161208843523,-2.5661078786688485 -31.22343780078715 8.366294943644299c -2.006133296569838,3.474724796414606 -3.062276484927114,7.416304835431739 -3.0622764849271187 11.428571428571418" /></g></g><g><g><path d="M 537.1428571428568,851.1792540052766 c 10.932402822313149,6.311825712351924 24.911612088435227,2.5661078786688503 31.223437800787146 -8.366294943644295c 2.0061332965698386,-3.4747247964146055 3.0622764849271142,-7.416304835431738 3.0622764849271196 -11.428571428571416" /></g><path d="M 537.1428571428569,890.7689867497079 l 68.57142857142854,-39.589732744431444 " /><g><path d="M 605.7142857142854,890.7689867497079 c -10.93240282231315,-6.311825712351923 -24.91161208843523,-2.5661078786688485 -31.22343780078715 8.366294943644299c -2.006133296569838,3.474724796414606 -3.062276484927114,7.416304835431739 -3.0622764849271187 11.428571428571418" /></g></g><g><g><path d="M 502.85714285714255,79.1794654888629 c 6.217248937900877e-15,-12.623651424703844 -10.233491432438989,-22.857142857142854 -22.857142857142833 -22.857142857142858c -4.01226659313968,2.220446049250313e-16 -7.953846632156814,1.0561431883572712 -11.428571428571423 3.0622764849271054" /></g><path d="M 537.1428571428569,59.384599116647195 l -68.57142857142851,-39.5897327444315 " /><g><path d="M 502.8571428571426,-1.7763568394002505e-14 c -5.329070518200751e-15,12.623651424703844 10.233491432438989,22.85714285714285 22.857142857142833 22.857142857142854c 4.01226659313968,-4.440892098500626e-16 7.953846632156814,-1.0561431883572716 11.428571428571423 -3.0622764849271062" /></g></g><g><g><path d="M 468.5714285714283,98.9743318610787 c 10.932402822313149,6.311825712351924 24.911612088435227,2.5661078786688503 31.223437800787146 -8.366294943644295c 2.0061332965698386,-3.4747247964146055 3.0622764849271142,-7.416304835431738 3.0622764849271196 -11.428571428571416" /></g><path d="M 468.5714285714283,138.56406460551017 l 68.57142857142854,-39.589732744431444 " /><g><path d="M 537.1428571428569,138.5640646055102 c -10.93240282231315,-6.311825712351923 -24.91161208843523,-2.5661078786688485 -31.22343780078715 8.366294943644299c -2.006133296569838,3.474724796414606 -3.062276484927114,7.416304835431739 -3.0622764849271187 11.428571428571418" /></g></g><g><g><path d="M 502.85714285714255,237.53839646658878 c 6.217248937900877e-15,-12.623651424703844 -10.233491432438989,-22.857142857142854 -22.857142857142833 -22.857142857142858c -4.01226659313968,2.220446049250313e-16 -7.953846632156814,1.0561431883572712 -11.428571428571423 3.0622764849271054" /></g><path d="M 537.1428571428569,217.74353009437309 l -68.57142857142851,-39.5897327444315 " /><g><path d="M 502.8571428571426,158.3589309777259 c -5.329070518200751e-15,12.623651424703844 10.233491432438989,22.85714285714285 22.857142857142833 22.857142857142854c 4.01226659313968,-4.440892098500626e-16 7.953846632156814,-1.0561431883572716 11.428571428571423 -3.0622764849271062" /></g></g><g><g><path d="M 502.85714285714255,316.7178619554518 c 6.217248937900877e-15,-12.623651424703844 -10.233491432438989,-22.857142857142854 -22.857142857142833 -22.857142857142858c -4.01226659313968,2.220446049250313e-16 -7.953846632156814,1.0561431883572712 -11.428571428571423 3.0622764849271054" /></g><path d="M 537.1428571428569,296.9229955832361 l -68.57142857142851,-39.5897327444315 " /><g><path d="M 502.8571428571426,237.5383964665889 c -5.329070518200751e-15,12.623651424703844 10.233491432438989,22.85714285714285 22.857142857142833 22.857142857142854c 4.01226659313968,-4.440892098500626e-16 7.953846632156814,-1.0561431883572716 11.428571428571423 -3.0622764849271062" /></g></g><g><g><path d="M 502.85714285714255,395.89732744431467 c 6.217248937900877e-15,-12.623651424703844 -10.233491432438989,-22.857142857142854 -22.857142857142833 -22.857142857142858c -4.01226659313968,2.220446049250313e-16 -7.953846632156814,1.0561431883572712 -11.428571428571423 3.0622764849271054" /></g><path d="M 537.1428571428569,376.102461072099 l -68.57142857142851,-39.5897327444315 " /><g><path d="M 502.8571428571426,316.7178619554518 c -5.329070518200751e-15,12.623651424703844 10.233491432438989,22.85714285714285 22.857142857142833 22.857142857142854c 4.01226659313968,-4.440892098500626e-16 7.953846632156814,-1.0561431883572716 11.428571428571423 -3.0622764849271062" /></g></g><g><g><path d="M 502.85714285714255,475.0767929331776 c 6.217248937900877e-15,-12.623651424703844 -10.233491432438989,-22.857142857142854 -22.857142857142833 -22.857142857142858c -4.01226659313968,2.220446049250313e-16 -7.953846632156814,1.0561431883572712 -11.428571428571423 3.0622764849271054" /></g><path d="M 537.1428571428569,455.2819265609619 l -68.57142857142851,-39.5897327444315 " /><g><path d="M 502.8571428571426,395.8973274443147 c -5.329070518200751e-15,12.623651424703844 10.233491432438989,22.85714285714285 22.857142857142833 22.857142857142854c 4.01226659313968,-4.440892098500626e-16 7.953846632156814,-1.0561431883572716 11.428571428571423 -3.0622764849271062" /></g></g><g><g><path d="M 537.1428571428569,494.8716593053934 c -10.93240282231315,6.311825712351922 -14.678120655996231,20.291034978474 -8.366294943644311 31.22343780078715c 2.0061332965698417,3.4747247964146046 4.8915701472297,6.360161647074466 8.366294943644302 8.36629494364431" /></g><path d="M 502.8571428571426,475.07679293317767 v 79.17946548886292 " /><g><path d="M 468.5714285714283,534.4613920498249 c 10.93240282231315,-6.311825712351924 14.67812065599623,-20.291034978474002 8.366294943644307 -31.22343780078715c -2.006133296569842,-3.474724796414604 -4.891570147229701,-6.360161647074465 -8.366294943644304 -8.366294943644307" /></g></g><g><g><path d="M 537.1428571428569,574.0511247942562 c -10.93240282231315,6.311825712351922 -14.678120655996231,20.291034978474 -8.366294943644311 31.22343780078715c 2.0061332965698417,3.4747247964146046 4.8915701472297,6.360161647074466 8.366294943644302 8.36629494364431" /></g><path d="M 502.8571428571426,554.2562584220406 v 79.17946548886292 " /><g><path d="M 468.5714285714283,613.6408575386878 c 10.93240282231315,-6.311825712351924 14.67812065599623,-20.291034978474002 8.366294943644307 -31.22343780078715c -2.006133296569842,-3.474724796414604 -4.891570147229701,-6.360161647074465 -8.366294943644304 -8.366294943644307" /></g></g><g><g><path d="M 537.1428571428569,653.2305902831191 c -10.93240282231315,6.311825712351922 -14.678120655996231,20.291034978474 -8.366294943644311 31.22343780078715c 2.0061332965698417,3.4747247964146046 4.8915701472297,6.360161647074466 8.366294943644302 8.36629494364431" /></g><path d="M 502.8571428571426,633.4357239109034 v 79.17946548886292 " /><g><path d="M 468.5714285714283,692.8203230275507 c 10.93240282231315,-6.311825712351924 14.67812065599623,-20.291034978474002 8.366294943644307 -31.22343780078715c -2.006133296569842,-3.474724796414604 -4.891570147229701,-6.360161647074465 -8.366294943644304 -8.366294943644307" /></g></g><g><g><path d="M 502.85714285714255,791.7946548886292 c 6.217248937900877e-15,-12.623651424703844 -10.233491432438989,-22.857142857142854 -22.857142857142833 -22.857142857142858c -4.01226659313968,2.220446049250313e-16 -7.953846632156814,1.0561431883572712 -11.428571428571423 3.0622764849271054" /></g><path d="M 537.1428571428569,771.9997885164136 l -68.57142857142851,-39.5897327444315 " /><g><path d="M 502.8571428571426,712.6151893997663 c -5.329070518200751e-15,12.623651424703844 10.233491432438989,22.85714285714285 22.857142857142833 22.857142857142854c 4.01226659313968,-4.440892098500626e-16 7.953846632156814,-1.0561431883572716 11.428571428571423 -3.0622764849271062" /></g></g><g><g><path d="M 502.85714285714255,870.9741203774922 c 6.217248937900877e-15,-12.623651424703844 -10.233491432438989,-22.857142857142854 -22.857142857142833 -22.857142857142858c -4.01226659313968,2.220446049250313e-16 -7.953846632156814,1.0561431883572712 -11.428571428571423 3.0622764849271054" /></g><path d="M 537.1428571428569,851.1792540052766 l -68.57142857142851,-39.5897327444315 " /><g><path d="M 502.8571428571426,791.7946548886293 c -5.329070518200751e-15,12.623651424703844 10.233491432438989,22.85714285714285 22.857142857142833 22.857142857142854c 4.01226659313968,-4.440892098500626e-16 7.953846632156814,-1.0561431883572716 11.428571428571423 -3.0622764849271062" /></g></g><g><g><path d="M 468.5714285714283,890.768986749708 c 10.932402822313149,6.311825712351924 24.911612088435227,2.5661078786688503 31.223437800787146 -8.366294943644295c 2.0061332965698386,-3.4747247964146055 3.0622764849271142,-7.416304835431738 3.0622764849271196 -11.428571428571416" /></g><path d="M 468.5714285714283,930.3587194941395 l 68.57142857142854,-39.589732744431444 " /><g><path d="M 537.1428571428569,930.3587194941393 c -10.93240282231315,-6.311825712351923 -24.91161208843523,-2.5661078786688485 -31.22343780078715 8.366294943644299c -2.006133296569838,3.474724796414606 -3.062276484927114,7.416304835431739 -3.0622764849271187 11.428571428571418" /></g></g><g><g><path d="M 468.5714285714283,-19.794866372215616 c -10.93240282231315,6.311825712351922 -14.678120655996231,20.291034978474 -8.366294943644311 31.22343780078715c 2.0061332965698417,3.4747247964146046 4.8915701472297,6.360161647074466 8.366294943644302 8.36629494364431" /></g><path d="M 434.28571428571405,-39.589732744431345 v 79.17946548886292 " /><g><path d="M 399.9999999999998,19.794866372215843 c 10.93240282231315,-6.311825712351924 14.67812065599623,-20.291034978474002 8.366294943644307 -31.22343780078715c -2.006133296569842,-3.474724796414604 -4.891570147229701,-6.360161647074465 -8.366294943644304 -8.366294943644307" /></g></g><g><g><path d="M 468.5714285714283,59.38459911664727 c -10.93240282231315,6.311825712351922 -14.678120655996231,20.291034978474 -8.366294943644311 31.22343780078715c 2.0061332965698417,3.4747247964146046 4.8915701472297,6.360161647074466 8.366294943644302 8.36629494364431" /></g><path d="M 434.28571428571405,39.589732744431544 v 79.17946548886292 " /><g><path d="M 399.9999999999998,98.97433186107872 c 10.93240282231315,-6.311825712351924 14.67812065599623,-20.291034978474002 8.366294943644307 -31.22343780078715c -2.006133296569842,-3.474724796414604 -4.891570147229701,-6.360161647074465 -8.366294943644304 -8.366294943644307" /></g></g><g><g><path d="M 399.9999999999998,138.56406460551014 c 10.932402822313149,6.311825712351924 24.911612088435227,2.5661078786688503 31.223437800787146 -8.366294943644295c 2.0061332965698386,-3.4747247964146055 3.0622764849271142,-7.416304835431738 3.0622764849271196 -11.428571428571416" /></g><path d="M 399.9999999999998,178.1537973499416 l 68.57142857142854,-39.589732744431444 " /><g><path d="M 468.5714285714283,178.15379734994164 c -10.93240282231315,-6.311825712351923 -24.91161208843523,-2.5661078786688485 -31.22343780078715 8.366294943644299c -2.006133296569838,3.474724796414606 -3.062276484927114,7.416304835431739 -3.0622764849271187 11.428571428571418" /></g></g><g><g><path d="M 399.9999999999998,217.74353009437314 c 10.932402822313149,6.311825712351924 24.911612088435227,2.5661078786688503 31.223437800787146 -8.366294943644295c 2.0061332965698386,-3.4747247964146055 3.0622764849271142,-7.416304835431738 3.0622764849271196 -11.428571428571416" /></g><path d="M 399.9999999999998,257.3332628388046 l 68.57142857142854,-39.589732744431444 " /><g><path d="M 468.5714285714283,257.3332628388046 c -10.93240282231315,-6.311825712351923 -24.91161208843523,-2.5661078786688485 -31.22343780078715 8.366294943644299c -2.006133296569838,3.474724796414606 -3.062276484927114,7.416304835431739 -3.0622764849271187 11.428571428571418" /></g></g><g><g><path d="M 399.9999999999998,296.92299558323606 c 10.932402822313149,6.311825712351924 24.911612088435227,2.5661078786688503 31.223437800787146 -8.366294943644295c 2.0061332965698386,-3.4747247964146055 3.0622764849271142,-7.416304835431738 3.0622764849271196 -11.428571428571416" /></g><path d="M 399.9999999999998,336.5127283276675 l 68.57142857142854,-39.589732744431444 " /><g><path d="M 468.5714285714283,336.5127283276675 c -10.93240282231315,-6.311825712351923 -24.91161208843523,-2.5661078786688485 -31.22343780078715 8.366294943644299c -2.006133296569838,3.474724796414606 -3.062276484927114,7.416304835431739 -3.0622764849271187 11.428571428571418" /></g></g><g><g><path d="M 399.9999999999998,376.10246107209895 c 10.932402822313149,6.311825712351924 24.911612088435227,2.5661078786688503 31.223437800787146 -8.366294943644295c 2.0061332965698386,-3.4747247964146055 3.0622764849271142,-7.416304835431738 3.0622764849271196 -11.428571428571416" /></g><path d="M 399.9999999999998,415.6921938165304 l 68.57142857142854,-39.589732744431444 " /><g><path d="M 468.5714285714283,415.6921938165304 c -10.93240282231315,-6.311825712351923 -24.91161208843523,-2.5661078786688485 -31.22343780078715 8.366294943644299c -2.006133296569838,3.474724796414606 -3.062276484927114,7.416304835431739 -3.0622764849271187 11.428571428571418" /></g></g><g><g><path d="M 399.9999999999998,455.2819265609619 c 10.932402822313149,6.311825712351924 24.911612088435227,2.5661078786688503 31.223437800787146 -8.366294943644295c 2.0061332965698386,-3.4747247964146055 3.0622764849271142,-7.416304835431738 3.0622764849271196 -11.428571428571416" /></g><path d="M 399.9999999999998,494.87165930539334 l 68.57142857142854,-39.589732744431444 " /><g><path d="M 468.5714285714283,494.8716593053934 c -10.93240282231315,-6.311825712351923 -24.91161208843523,-2.5661078786688485 -31.22343780078715 8.366294943644299c -2.006133296569838,3.474724796414606 -3.062276484927114,7.416304835431739 -3.0622764849271187 11.428571428571418" /></g></g><g><g><path d="M 399.9999999999998,534.4613920498249 c 10.932402822313149,6.311825712351924 24.911612088435227,2.5661078786688503 31.223437800787146 -8.366294943644295c 2.0061332965698386,-3.4747247964146055 3.0622764849271142,-7.416304835431738 3.0622764849271196 -11.428571428571416" /></g><path d="M 399.9999999999998,574.0511247942563 l 68.57142857142854,-39.589732744431444 " /><g><path d="M 468.5714285714283,574.0511247942562 c -10.93240282231315,-6.311825712351923 -24.91161208843523,-2.5661078786688485 -31.22343780078715 8.366294943644299c -2.006133296569838,3.474724796414606 -3.062276484927114,7.416304835431739 -3.0622764849271187 11.428571428571418" /></g></g><g><g><path d="M 468.5714285714283,613.6408575386877 c -10.93240282231315,6.311825712351922 -14.678120655996231,20.291034978474 -8.366294943644311 31.22343780078715c 2.0061332965698417,3.4747247964146046 4.8915701472297,6.360161647074466 8.366294943644302 8.36629494364431" /></g><path d="M 434.28571428571405,593.845991166472 v 79.17946548886292 " /><g><path d="M 399.9999999999998,653.2305902831192 c 10.93240282231315,-6.311825712351924 14.67812065599623,-20.291034978474002 8.366294943644307 -31.22343780078715c -2.006133296569842,-3.474724796414604 -4.891570147229701,-6.360161647074465 -8.366294943644304 -8.366294943644307" /></g></g><g><g><path d="M 468.5714285714283,692.8203230275507 c -10.93240282231315,6.311825712351922 -14.678120655996231,20.291034978474 -8.366294943644311 31.22343780078715c 2.0061332965698417,3.4747247964146046 4.8915701472297,6.360161647074466 8.366294943644302 8.36629494364431" /></g><path d="M 434.28571428571405,673.025456655335 v 79.17946548886292 " /><g><path d="M 399.9999999999998,732.4100557719822 c 10.93240282231315,-6.311825712351924 14.67812065599623,-20.291034978474002 8.366294943644307 -31.22343780078715c -2.006133296569842,-3.474724796414604 -4.891570147229701,-6.360161647074465 -8.366294943644304 -8.366294943644307" /></g></g><g><g><path d="M 399.9999999999998,771.9997885164137 c 10.932402822313149,6.311825712351924 24.911612088435227,2.5661078786688503 31.223437800787146 -8.366294943644295c 2.0061332965698386,-3.4747247964146055 3.0622764849271142,-7.416304835431738 3.0622764849271196 -11.428571428571416" /></g><path d="M 399.9999999999998,811.589521260845 l 68.57142857142854,-39.589732744431444 " /><g><path d="M 468.5714285714283,811.589521260845 c -10.93240282231315,-6.311825712351923 -24.91161208843523,-2.5661078786688485 -31.22343780078715 8.366294943644299c -2.006133296569838,3.474724796414606 -3.062276484927114,7.416304835431739 -3.0622764849271187 11.428571428571418" /></g></g><g><g><path d="M 399.9999999999998,851.1792540052766 c 10.932402822313149,6.311825712351924 24.911612088435227,2.5661078786688503 31.223437800787146 -8.366294943644295c 2.0061332965698386,-3.4747247964146055 3.0622764849271142,-7.416304835431738 3.0622764849271196 -11.428571428571416" /></g><path d="M 399.9999999999998,890.7689867497079 l 68.57142857142854,-39.589732744431444 " /><g><path d="M 468.5714285714283,890.7689867497079 c -10.93240282231315,-6.311825712351923 -24.91161208843523,-2.5661078786688485 -31.22343780078715 8.366294943644299c -2.006133296569838,3.474724796414606 -3.062276484927114,7.416304835431739 -3.0622764849271187 11.428571428571418" /></g></g><g><g><path d="M 365.7142857142855,79.1794654888629 c 6.217248937900877e-15,-12.623651424703844 -10.233491432438989,-22.857142857142854 -22.857142857142833 -22.857142857142858c -4.01226659313968,2.220446049250313e-16 -7.953846632156814,1.0561431883572712 -11.428571428571423 3.0622764849271054" /></g><path d="M 399.99999999999983,59.384599116647195 l -68.57142857142851,-39.5897327444315 " /><g><path d="M 365.7142857142856,-1.7763568394002505e-14 c -5.329070518200751e-15,12.623651424703844 10.233491432438989,22.85714285714285 22.857142857142833 22.857142857142854c 4.01226659313968,-4.440892098500626e-16 7.953846632156814,-1.0561431883572716 11.428571428571423 -3.0622764849271062" /></g></g><g><g><path d="M 365.7142857142855,158.3589309777259 c 6.217248937900877e-15,-12.623651424703844 -10.233491432438989,-22.857142857142854 -22.857142857142833 -22.857142857142858c -4.01226659313968,2.220446049250313e-16 -7.953846632156814,1.0561431883572712 -11.428571428571423 3.0622764849271054" /></g><path d="M 399.99999999999983,138.5640646055102 l -68.57142857142851,-39.5897327444315 " /><g><path d="M 365.7142857142856,79.17946548886299 c -5.329070518200751e-15,12.623651424703844 10.233491432438989,22.85714285714285 22.857142857142833 22.857142857142854c 4.01226659313968,-4.440892098500626e-16 7.953846632156814,-1.0561431883572716 11.428571428571423 -3.0622764849271062" /></g></g><g><g><path d="M 399.9999999999998,178.1537973499416 c -10.93240282231315,6.311825712351922 -14.678120655996231,20.291034978474 -8.366294943644311 31.22343780078715c 2.0061332965698417,3.4747247964146046 4.8915701472297,6.360161647074466 8.366294943644302 8.36629494364431" /></g><path d="M 365.71428571428555,158.3589309777259 v 79.17946548886292 " /><g><path d="M 331.42857142857133,217.74353009437306 c 10.93240282231315,-6.311825712351924 14.67812065599623,-20.291034978474002 8.366294943644307 -31.22343780078715c -2.006133296569842,-3.474724796414604 -4.891570147229701,-6.360161647074465 -8.366294943644304 -8.366294943644307" /></g></g><g><g><path d="M 399.9999999999998,257.3332628388046 c -10.93240282231315,6.311825712351922 -14.678120655996231,20.291034978474 -8.366294943644311 31.22343780078715c 2.0061332965698417,3.4747247964146046 4.8915701472297,6.360161647074466 8.366294943644302 8.36629494364431" /></g><path d="M 365.71428571428555,237.5383964665889 v 79.17946548886292 " /><g><path d="M 331.42857142857133,296.92299558323606 c 10.93240282231315,-6.311825712351924 14.67812065599623,-20.291034978474002 8.366294943644307 -31.22343780078715c -2.006133296569842,-3.474724796414604 -4.891570147229701,-6.360161647074465 -8.366294943644304 -8.366294943644307" /></g></g><g><g><path d="M 365.7142857142855,395.89732744431467 c 6.217248937900877e-15,-12.623651424703844 -10.233491432438989,-22.857142857142854 -22.857142857142833 -22.857142857142858c -4.01226659313968,2.220446049250313e-16 -7.953846632156814,1.0561431883572712 -11.428571428571423 3.0622764849271054" /></g><path d="M 399.99999999999983,376.102461072099 l -68.57142857142851,-39.5897327444315 " /><g><path d="M 365.7142857142856,316.7178619554518 c -5.329070518200751e-15,12.623651424703844 10.233491432438989,22.85714285714285 22.857142857142833 22.857142857142854c 4.01226659313968,-4.440892098500626e-16 7.953846632156814,-1.0561431883572716 11.428571428571423 -3.0622764849271062" /></g></g><g><g><path d="M 365.7142857142855,475.0767929331776 c 6.217248937900877e-15,-12.623651424703844 -10.233491432438989,-22.857142857142854 -22.857142857142833 -22.857142857142858c -4.01226659313968,2.220446049250313e-16 -7.953846632156814,1.0561431883572712 -11.428571428571423 3.0622764849271054" /></g><path d="M 399.99999999999983,455.2819265609619 l -68.57142857142851,-39.5897327444315 " /><g><path d="M 365.7142857142856,395.8973274443147 c -5.329070518200751e-15,12.623651424703844 10.233491432438989,22.85714285714285 22.857142857142833 22.857142857142854c 4.01226659313968,-4.440892098500626e-16 7.953846632156814,-1.0561431883572716 11.428571428571423 -3.0622764849271062" /></g></g><g><g><path d="M 399.9999999999998,494.8716593053934 c -10.93240282231315,6.311825712351922 -14.678120655996231,20.291034978474 -8.366294943644311 31.22343780078715c 2.0061332965698417,3.4747247964146046 4.8915701472297,6.360161647074466 8.366294943644302 8.36629494364431" /></g><path d="M 365.71428571428555,475.07679293317767 v 79.17946548886292 " /><g><path d="M 331.42857142857133,534.4613920498249 c 10.93240282231315,-6.311825712351924 14.67812065599623,-20.291034978474002 8.366294943644307 -31.22343780078715c -2.006133296569842,-3.474724796414604 -4.891570147229701,-6.360161647074465 -8.366294943644304 -8.366294943644307" /></g></g><g><g><path d="M 331.4285714285713,574.0511247942563 c 10.932402822313149,6.311825712351924 24.911612088435227,2.5661078786688503 31.223437800787146 -8.366294943644295c 2.0061332965698386,-3.4747247964146055 3.0622764849271142,-7.416304835431738 3.0622764849271196 -11.428571428571416" /></g><path d="M 331.4285714285713,613.6408575386877 l 68.57142857142854,-39.589732744431444 " /><g><path d="M 399.99999999999983,613.6408575386877 c -10.93240282231315,-6.311825712351923 -24.91161208843523,-2.5661078786688485 -31.22343780078715 8.366294943644299c -2.006133296569838,3.474724796414606 -3.062276484927114,7.416304835431739 -3.0622764849271187 11.428571428571418" /></g></g><g><g><path d="M 365.7142857142855,712.6151893997663 c 6.217248937900877e-15,-12.623651424703844 -10.233491432438989,-22.857142857142854 -22.857142857142833 -22.857142857142858c -4.01226659313968,2.220446049250313e-16 -7.953846632156814,1.0561431883572712 -11.428571428571423 3.0622764849271054" /></g><path d="M 399.99999999999983,692.8203230275507 l -68.57142857142851,-39.5897327444315 " /><g><path d="M 365.7142857142856,633.4357239109034 c -5.329070518200751e-15,12.623651424703844 10.233491432438989,22.85714285714285 22.857142857142833 22.857142857142854c 4.01226659313968,-4.440892098500626e-16 7.953846632156814,-1.0561431883572716 11.428571428571423 -3.0622764849271062" /></g></g><g><g><path d="M 399.9999999999998,732.410055771982 c -10.93240282231315,6.311825712351922 -14.678120655996231,20.291034978474 -8.366294943644311 31.22343780078715c 2.0061332965698417,3.4747247964146046 4.8915701472297,6.360161647074466 8.366294943644302 8.36629494364431" /></g><path d="M 365.71428571428555,712.6151893997663 v 79.17946548886292 " /><g><path d="M 331.42857142857133,771.9997885164136 c 10.93240282231315,-6.311825712351924 14.67812065599623,-20.291034978474002 8.366294943644307 -31.22343780078715c -2.006133296569842,-3.474724796414604 -4.891570147229701,-6.360161647074465 -8.366294943644304 -8.366294943644307" /></g></g><g><g><path d="M 331.4285714285713,811.5895212608451 c 10.932402822313149,6.311825712351924 24.911612088435227,2.5661078786688503 31.223437800787146 -8.366294943644295c 2.0061332965698386,-3.4747247964146055 3.0622764849271142,-7.416304835431738 3.0622764849271196 -11.428571428571416" /></g><path d="M 331.4285714285713,851.1792540052766 l 68.57142857142854,-39.589732744431444 " /><g><path d="M 399.99999999999983,851.1792540052764 c -10.93240282231315,-6.311825712351923 -24.91161208843523,-2.5661078786688485 -31.22343780078715 8.366294943644299c -2.006133296569838,3.474724796414606 -3.062276484927114,7.416304835431739 -3.0622764849271187 11.428571428571418" /></g></g><g><g><path d="M 331.4285714285713,890.768986749708 c 10.932402822313149,6.311825712351924 24.911612088435227,2.5661078786688503 31.223437800787146 -8.366294943644295c 2.0061332965698386,-3.4747247964146055 3.0622764849271142,-7.416304835431738 3.0622764849271196 -11.428571428571416" /></g><path d="M 331.4285714285713,930.3587194941395 l 68.57142857142854,-39.589732744431444 " /><g><path d="M 399.99999999999983,930.3587194941393 c -10.93240282231315,-6.311825712351923 -24.91161208843523,-2.5661078786688485 -31.22343780078715 8.366294943644299c -2.006133296569838,3.474724796414606 -3.062276484927114,7.416304835431739 -3.0622764849271187 11.428571428571418" /></g></g><g><g><path d="M 331.4285714285712,-19.794866372215616 c -10.93240282231315,6.311825712351922 -14.678120655996231,20.291034978474 -8.366294943644311 31.22343780078715c 2.0061332965698417,3.4747247964146046 4.8915701472297,6.360161647074466 8.366294943644302 8.36629494364431" /></g><path d="M 297.142857142857,-39.589732744431345 v 79.17946548886292 " /><g><path d="M 262.8571428571427,19.794866372215843 c 10.93240282231315,-6.311825712351924 14.67812065599623,-20.291034978474002 8.366294943644307 -31.22343780078715c -2.006133296569842,-3.474724796414604 -4.891570147229701,-6.360161647074465 -8.366294943644304 -8.366294943644307" /></g></g><g><g><path d="M 262.8571428571427,59.384599116647266 c 10.932402822313149,6.311825712351924 24.911612088435227,2.5661078786688503 31.223437800787146 -8.366294943644295c 2.0061332965698386,-3.4747247964146055 3.0622764849271142,-7.416304835431738 3.0622764849271196 -11.428571428571416" /></g><path d="M 262.8571428571427,98.97433186107872 l 68.57142857142854,-39.589732744431444 " /><g><path d="M 331.4285714285713,98.97433186107875 c -10.93240282231315,-6.311825712351923 -24.91161208843523,-2.5661078786688485 -31.22343780078715 8.366294943644299c -2.006133296569838,3.474724796414606 -3.062276484927114,7.416304835431739 -3.0622764849271187 11.428571428571418" /></g></g><g><g><path d="M 331.4285714285712,138.56406460551017 c -10.93240282231315,6.311825712351922 -14.678120655996231,20.291034978474 -8.366294943644311 31.22343780078715c 2.0061332965698417,3.4747247964146046 4.8915701472297,6.360161647074466 8.366294943644302 8.36629494364431" /></g><path d="M 297.142857142857,118.76919823329443 v 79.17946548886292 " /><g><path d="M 262.8571428571427,178.1537973499416 c 10.93240282231315,-6.311825712351924 14.67812065599623,-20.291034978474002 8.366294943644307 -31.22343780078715c -2.006133296569842,-3.474724796414604 -4.891570147229701,-6.360161647074465 -8.366294943644304 -8.366294943644307" /></g></g><g><g><path d="M 297.14285714285694,277.12812921102034 c 6.217248937900877e-15,-12.623651424703844 -10.233491432438989,-22.857142857142854 -22.857142857142833 -22.857142857142858c -4.01226659313968,2.220446049250313e-16 -7.953846632156814,1.0561431883572712 -11.428571428571423 3.0622764849271054" /></g><path d="M 331.4285714285713,257.33326283880467 l -68.57142857142851,-39.5897327444315 " /><g><path d="M 297.14285714285705,197.94866372215745 c -5.329070518200751e-15,12.623651424703844 10.233491432438989,22.85714285714285 22.857142857142833 22.857142857142854c 4.01226659313968,-4.440892098500626e-16 7.953846632156814,-1.0561431883572716 11.428571428571423 -3.0622764849271062" /></g></g><g><g><path d="M 262.8571428571427,296.92299558323606 c 10.932402822313149,6.311825712351924 24.911612088435227,2.5661078786688503 31.223437800787146 -8.366294943644295c 2.0061332965698386,-3.4747247964146055 3.0622764849271142,-7.416304835431738 3.0622764849271196 -11.428571428571416" /></g><path d="M 262.8571428571427,336.5127283276675 l 68.57142857142854,-39.589732744431444 " /><g><path d="M 331.4285714285713,336.5127283276675 c -10.93240282231315,-6.311825712351923 -24.91161208843523,-2.5661078786688485 -31.22343780078715 8.366294943644299c -2.006133296569838,3.474724796414606 -3.062276484927114,7.416304835431739 -3.0622764849271187 11.428571428571418" /></g></g><g><g><path d="M 331.4285714285712,376.10246107209895 c -10.93240282231315,6.311825712351922 -14.678120655996231,20.291034978474 -8.366294943644311 31.22343780078715c 2.0061332965698417,3.4747247964146046 4.8915701472297,6.360161647074466 8.366294943644302 8.36629494364431" /></g><path d="M 297.142857142857,356.3075946998832 v 79.17946548886292 " /><g><path d="M 262.8571428571427,415.6921938165304 c 10.93240282231315,-6.311825712351924 14.67812065599623,-20.291034978474002 8.366294943644307 -31.22343780078715c -2.006133296569842,-3.474724796414604 -4.891570147229701,-6.360161647074465 -8.366294943644304 -8.366294943644307" /></g></g><g><g><path d="M 331.4285714285712,455.2819265609619 c -10.93240282231315,6.311825712351922 -14.678120655996231,20.291034978474 -8.366294943644311 31.22343780078715c 2.0061332965698417,3.4747247964146046 4.8915701472297,6.360161647074466 8.366294943644302 8.36629494364431" /></g><path d="M 297.142857142857,435.48706018874617 v 79.17946548886292 " /><g><path d="M 262.8571428571427,494.87165930539334 c 10.93240282231315,-6.311825712351924 14.67812065599623,-20.291034978474002 8.366294943644307 -31.22343780078715c -2.006133296569842,-3.474724796414604 -4.891570147229701,-6.360161647074465 -8.366294943644304 -8.366294943644307" /></g></g><g><g><path d="M 331.4285714285712,534.4613920498248 c -10.93240282231315,6.311825712351922 -14.678120655996231,20.291034978474 -8.366294943644311 31.22343780078715c 2.0061332965698417,3.4747247964146046 4.8915701472297,6.360161647074466 8.366294943644302 8.36629494364431" /></g><path d="M 297.142857142857,514.6665256776091 v 79.17946548886292 " /><g><path d="M 262.8571428571427,574.0511247942563 c 10.93240282231315,-6.311825712351924 14.67812065599623,-20.291034978474002 8.366294943644307 -31.22343780078715c -2.006133296569842,-3.474724796414604 -4.891570147229701,-6.360161647074465 -8.366294943644304 -8.366294943644307" /></g></g><g><g><path d="M 331.4285714285712,613.6408575386877 c -10.93240282231315,6.311825712351922 -14.678120655996231,20.291034978474 -8.366294943644311 31.22343780078715c 2.0061332965698417,3.4747247964146046 4.8915701472297,6.360161647074466 8.366294943644302 8.36629494364431" /></g><path d="M 297.142857142857,593.845991166472 v 79.17946548886292 " /><g><path d="M 262.8571428571427,653.2305902831192 c 10.93240282231315,-6.311825712351924 14.67812065599623,-20.291034978474002 8.366294943644307 -31.22343780078715c -2.006133296569842,-3.474724796414604 -4.891570147229701,-6.360161647074465 -8.366294943644304 -8.366294943644307" /></g></g><g><g><path d="M 297.14285714285694,752.2049221441979 c 6.217248937900877e-15,-12.623651424703844 -10.233491432438989,-22.857142857142854 -22.857142857142833 -22.857142857142858c -4.01226659313968,2.220446049250313e-16 -7.953846632156814,1.0561431883572712 -11.428571428571423 3.0622764849271054" /></g><path d="M 331.4285714285713,732.4100557719822 l -68.57142857142851,-39.5897327444315 " /><g><path d="M 297.14285714285705,673.025456655335 c -5.329070518200751e-15,12.623651424703844 10.233491432438989,22.85714285714285 22.857142857142833 22.857142857142854c 4.01226659313968,-4.440892098500626e-16 7.953846632156814,-1.0561431883572716 11.428571428571423 -3.0622764849271062" /></g></g><g><g><path d="M 331.4285714285712,771.9997885164136 c -10.93240282231315,6.311825712351922 -14.678120655996231,20.291034978474 -8.366294943644311 31.22343780078715c 2.0061332965698417,3.4747247964146046 4.8915701472297,6.360161647074466 8.366294943644302 8.36629494364431" /></g><path d="M 297.142857142857,752.2049221441979 v 79.17946548886292 " /><g><path d="M 262.8571428571427,811.5895212608451 c 10.93240282231315,-6.311825712351924 14.67812065599623,-20.291034978474002 8.366294943644307 -31.22343780078715c -2.006133296569842,-3.474724796414604 -4.891570147229701,-6.360161647074465 -8.366294943644304 -8.366294943644307" /></g></g><g><g><path d="M 262.8571428571427,851.1792540052766 c 10.932402822313149,6.311825712351924 24.911612088435227,2.5661078786688503 31.223437800787146 -8.366294943644295c 2.0061332965698386,-3.4747247964146055 3.0622764849271142,-7.416304835431738 3.0622764849271196 -11.428571428571416" /></g><path d="M 262.8571428571427,890.7689867497079 l 68.57142857142854,-39.589732744431444 " /><g><path d="M 331.4285714285713,890.7689867497079 c -10.93240282231315,-6.311825712351923 -24.91161208843523,-2.5661078786688485 -31.22343780078715 8.366294943644299c -2.006133296569838,3.474724796414606 -3.062276484927114,7.416304835431739 -3.0622764849271187 11.428571428571418" /></g></g><g><g><path d="M 194.2857142857142,19.794866372215708 c 10.932402822313149,6.311825712351924 24.911612088435227,2.5661078786688503 31.223437800787146 -8.366294943644295c 2.0061332965698386,-3.4747247964146055 3.0622764849271142,-7.416304835431738 3.0622764849271196 -11.428571428571416" /></g><path d="M 194.28571428571416,59.384599116647166 l 68.57142857142854,-39.589732744431444 " /><g><path d="M 262.8571428571427,59.38459911664719 c -10.93240282231315,-6.311825712351923 -24.91161208843523,-2.5661078786688485 -31.22343780078715 8.366294943644299c -2.006133296569838,3.474724796414606 -3.062276484927114,7.416304835431739 -3.0622764849271187 11.428571428571418" /></g></g><g><g><path d="M 194.2857142857142,98.9743318610787 c 10.932402822313149,6.311825712351924 24.911612088435227,2.5661078786688503 31.223437800787146 -8.366294943644295c 2.0061332965698386,-3.4747247964146055 3.0622764849271142,-7.416304835431738 3.0622764849271196 -11.428571428571416" /></g><path d="M 194.28571428571416,138.56406460551017 l 68.57142857142854,-39.589732744431444 " /><g><path d="M 262.8571428571427,138.5640646055102 c -10.93240282231315,-6.311825712351923 -24.91161208843523,-2.5661078786688485 -31.22343780078715 8.366294943644299c -2.006133296569838,3.474724796414606 -3.062276484927114,7.416304835431739 -3.0622764849271187 11.428571428571418" /></g></g><g><g><path d="M 194.2857142857142,178.15379734994158 c 10.932402822313149,6.311825712351924 24.911612088435227,2.5661078786688503 31.223437800787146 -8.366294943644295c 2.0061332965698386,-3.4747247964146055 3.0622764849271142,-7.416304835431738 3.0622764849271196 -11.428571428571416" /></g><path d="M 194.28571428571416,217.74353009437306 l 68.57142857142854,-39.589732744431444 " /><g><path d="M 262.8571428571427,217.74353009437309 c -10.93240282231315,-6.311825712351923 -24.91161208843523,-2.5661078786688485 -31.22343780078715 8.366294943644299c -2.006133296569838,3.474724796414606 -3.062276484927114,7.416304835431739 -3.0622764849271187 11.428571428571418" /></g></g><g><g><path d="M 228.57142857142844,316.7178619554518 c 6.217248937900877e-15,-12.623651424703844 -10.233491432438989,-22.857142857142854 -22.857142857142833 -22.857142857142858c -4.01226659313968,2.220446049250313e-16 -7.953846632156814,1.0561431883572712 -11.428571428571423 3.0622764849271054" /></g><path d="M 262.8571428571427,296.9229955832361 l -68.57142857142851,-39.5897327444315 " /><g><path d="M 228.57142857142844,237.5383964665889 c -5.329070518200751e-15,12.623651424703844 10.233491432438989,22.85714285714285 22.857142857142833 22.857142857142854c 4.01226659313968,-4.440892098500626e-16 7.953846632156814,-1.0561431883572716 11.428571428571423 -3.0622764849271062" /></g></g><g><g><path d="M 194.2857142857142,336.5127283276675 c 10.932402822313149,6.311825712351924 24.911612088435227,2.5661078786688503 31.223437800787146 -8.366294943644295c 2.0061332965698386,-3.4747247964146055 3.0622764849271142,-7.416304835431738 3.0622764849271196 -11.428571428571416" /></g><path d="M 194.28571428571416,376.10246107209895 l 68.57142857142854,-39.589732744431444 " /><g><path d="M 262.8571428571427,376.10246107209895 c -10.93240282231315,-6.311825712351923 -24.91161208843523,-2.5661078786688485 -31.22343780078715 8.366294943644299c -2.006133296569838,3.474724796414606 -3.062276484927114,7.416304835431739 -3.0622764849271187 11.428571428571418" /></g></g><g><g><path d="M 194.2857142857142,415.69219381653045 c 10.932402822313149,6.311825712351924 24.911612088435227,2.5661078786688503 31.223437800787146 -8.366294943644295c 2.0061332965698386,-3.4747247964146055 3.0622764849271142,-7.416304835431738 3.0622764849271196 -11.428571428571416" /></g><path d="M 194.28571428571416,455.2819265609619 l 68.57142857142854,-39.589732744431444 " /><g><path d="M 262.8571428571427,455.2819265609619 c -10.93240282231315,-6.311825712351923 -24.91161208843523,-2.5661078786688485 -31.22343780078715 8.366294943644299c -2.006133296569838,3.474724796414606 -3.062276484927114,7.416304835431739 -3.0622764849271187 11.428571428571418" /></g></g><g><g><path d="M 194.2857142857142,494.8716593053934 c 10.932402822313149,6.311825712351924 24.911612088435227,2.5661078786688503 31.223437800787146 -8.366294943644295c 2.0061332965698386,-3.4747247964146055 3.0622764849271142,-7.416304835431738 3.0622764849271196 -11.428571428571416" /></g><path d="M 194.28571428571416,534.4613920498248 l 68.57142857142854,-39.589732744431444 " /><g><path d="M 262.8571428571427,534.4613920498248 c -10.93240282231315,-6.311825712351923 -24.91161208843523,-2.5661078786688485 -31.22343780078715 8.366294943644299c -2.006133296569838,3.474724796414606 -3.062276484927114,7.416304835431739 -3.0622764849271187 11.428571428571418" /></g></g><g><g><path d="M 262.85714285714266,574.0511247942562 c -10.93240282231315,6.311825712351922 -14.678120655996231,20.291034978474 -8.366294943644311 31.22343780078715c 2.0061332965698417,3.4747247964146046 4.8915701472297,6.360161647074466 8.366294943644302 8.36629494364431" /></g><path d="M 228.57142857142844,554.2562584220406 v 79.17946548886292 " /><g><path d="M 194.28571428571416,613.6408575386878 c 10.93240282231315,-6.311825712351924 14.67812065599623,-20.291034978474002 8.366294943644307 -31.22343780078715c -2.006133296569842,-3.474724796414604 -4.891570147229701,-6.360161647074465 -8.366294943644304 -8.366294943644307" /></g></g><g><g><path d="M 194.2857142857142,653.2305902831192 c 10.932402822313149,6.311825712351924 24.911612088435227,2.5661078786688503 31.223437800787146 -8.366294943644295c 2.0061332965698386,-3.4747247964146055 3.0622764849271142,-7.416304835431738 3.0622764849271196 -11.428571428571416" /></g><path d="M 194.28571428571416,692.8203230275506 l 68.57142857142854,-39.589732744431444 " /><g><path d="M 262.8571428571427,692.8203230275506 c -10.93240282231315,-6.311825712351923 -24.91161208843523,-2.5661078786688485 -31.22343780078715 8.366294943644299c -2.006133296569838,3.474724796414606 -3.062276484927114,7.416304835431739 -3.0622764849271187 11.428571428571418" /></g></g><g><g><path d="M 228.57142857142844,791.7946548886292 c 6.217248937900877e-15,-12.623651424703844 -10.233491432438989,-22.857142857142854 -22.857142857142833 -22.857142857142858c -4.01226659313968,2.220446049250313e-16 -7.953846632156814,1.0561431883572712 -11.428571428571423 3.0622764849271054" /></g><path d="M 262.8571428571427,771.9997885164136 l -68.57142857142851,-39.5897327444315 " /><g><path d="M 228.57142857142844,712.6151893997663 c -5.329070518200751e-15,12.623651424703844 10.233491432438989,22.85714285714285 22.857142857142833 22.857142857142854c 4.01226659313968,-4.440892098500626e-16 7.953846632156814,-1.0561431883572716 11.428571428571423 -3.0622764849271062" /></g></g><g><g><path d="M 194.2857142857142,811.5895212608451 c 10.932402822313149,6.311825712351924 24.911612088435227,2.5661078786688503 31.223437800787146 -8.366294943644295c 2.0061332965698386,-3.4747247964146055 3.0622764849271142,-7.416304835431738 3.0622764849271196 -11.428571428571416" /></g><path d="M 194.28571428571416,851.1792540052766 l 68.57142857142854,-39.589732744431444 " /><g><path d="M 262.8571428571427,851.1792540052764 c -10.93240282231315,-6.311825712351923 -24.91161208843523,-2.5661078786688485 -31.22343780078715 8.366294943644299c -2.006133296569838,3.474724796414606 -3.062276484927114,7.416304835431739 -3.0622764849271187 11.428571428571418" /></g></g><g><g><path d="M 228.57142857142844,950.1535858663551 c 6.217248937900877e-15,-12.623651424703844 -10.233491432438989,-22.857142857142854 -22.857142857142833 -22.857142857142858c -4.01226659313968,2.220446049250313e-16 -7.953846632156814,1.0561431883572712 -11.428571428571423 3.0622764849271054" /></g><path d="M 262.8571428571427,930.3587194941395 l -68.57142857142851,-39.5897327444315 " /><g><path d="M 228.57142857142844,870.9741203774922 c -5.329070518200751e-15,12.623651424703844 10.233491432438989,22.85714285714285 22.857142857142833 22.857142857142854c 4.01226659313968,-4.440892098500626e-16 7.953846632156814,-1.0561431883572716 11.428571428571423 -3.0622764849271062" /></g></g><g><g><path d="M 159.9999999999999,39.58973274443157 c 6.217248937900877e-15,-12.623651424703844 -10.233491432438989,-22.857142857142854 -22.857142857142833 -22.857142857142858c -4.01226659313968,2.220446049250313e-16 -7.953846632156814,1.0561431883572712 -11.428571428571423 3.0622764849271054" /></g><path d="M 194.28571428571416,19.794866372215864 l -68.57142857142851,-39.5897327444315 " /><g><path d="M 159.99999999999994,-39.589732744431345 c -5.329070518200751e-15,12.623651424703844 10.233491432438989,22.85714285714285 22.857142857142833 22.857142857142854c 4.01226659313968,-4.440892098500626e-16 7.953846632156814,-1.0561431883572716 11.428571428571423 -3.0622764849271062" /></g></g><g><g><path d="M 159.9999999999999,118.76919823329446 c 6.217248937900877e-15,-12.623651424703844 -10.233491432438989,-22.857142857142854 -22.857142857142833 -22.857142857142858c -4.01226659313968,2.220446049250313e-16 -7.953846632156814,1.0561431883572712 -11.428571428571423 3.0622764849271054" /></g><path d="M 194.28571428571416,98.97433186107875 l -68.57142857142851,-39.5897327444315 " /><g><path d="M 159.99999999999994,39.589732744431544 c -5.329070518200751e-15,12.623651424703844 10.233491432438989,22.85714285714285 22.857142857142833 22.857142857142854c 4.01226659313968,-4.440892098500626e-16 7.953846632156814,-1.0561431883572716 11.428571428571423 -3.0622764849271062" /></g></g><g><g><path d="M 125.71428571428565,138.56406460551014 c 10.932402822313149,6.311825712351924 24.911612088435227,2.5661078786688503 31.223437800787146 -8.366294943644295c 2.0061332965698386,-3.4747247964146055 3.0622764849271142,-7.416304835431738 3.0622764849271196 -11.428571428571416" /></g><path d="M 125.71428571428564,178.1537973499416 l 68.57142857142854,-39.589732744431444 " /><g><path d="M 194.28571428571416,178.15379734994164 c -10.93240282231315,-6.311825712351923 -24.91161208843523,-2.5661078786688485 -31.22343780078715 8.366294943644299c -2.006133296569838,3.474724796414606 -3.062276484927114,7.416304835431739 -3.0622764849271187 11.428571428571418" /></g></g><g><g><path d="M 125.71428571428565,217.74353009437314 c 10.932402822313149,6.311825712351924 24.911612088435227,2.5661078786688503 31.223437800787146 -8.366294943644295c 2.0061332965698386,-3.4747247964146055 3.0622764849271142,-7.416304835431738 3.0622764849271196 -11.428571428571416" /></g><path d="M 125.71428571428564,257.3332628388046 l 68.57142857142854,-39.589732744431444 " /><g><path d="M 194.28571428571416,257.3332628388046 c -10.93240282231315,-6.311825712351923 -24.91161208843523,-2.5661078786688485 -31.22343780078715 8.366294943644299c -2.006133296569838,3.474724796414606 -3.062276484927114,7.416304835431739 -3.0622764849271187 11.428571428571418" /></g></g><g><g><path d="M 125.71428571428565,296.92299558323606 c 10.932402822313149,6.311825712351924 24.911612088435227,2.5661078786688503 31.223437800787146 -8.366294943644295c 2.0061332965698386,-3.4747247964146055 3.0622764849271142,-7.416304835431738 3.0622764849271196 -11.428571428571416" /></g><path d="M 125.71428571428564,336.5127283276675 l 68.57142857142854,-39.589732744431444 " /><g><path d="M 194.28571428571416,336.5127283276675 c -10.93240282231315,-6.311825712351923 -24.91161208843523,-2.5661078786688485 -31.22343780078715 8.366294943644299c -2.006133296569838,3.474724796414606 -3.062276484927114,7.416304835431739 -3.0622764849271187 11.428571428571418" /></g></g><g><g><path d="M 159.9999999999999,435.4870601887461 c 6.217248937900877e-15,-12.623651424703844 -10.233491432438989,-22.857142857142854 -22.857142857142833 -22.857142857142858c -4.01226659313968,2.220446049250313e-16 -7.953846632156814,1.0561431883572712 -11.428571428571423 3.0622764849271054" /></g><path d="M 194.28571428571416,415.69219381653045 l -68.57142857142851,-39.5897327444315 " /><g><path d="M 159.99999999999994,356.3075946998832 c -5.329070518200751e-15,12.623651424703844 10.233491432438989,22.85714285714285 22.857142857142833 22.857142857142854c 4.01226659313968,-4.440892098500626e-16 7.953846632156814,-1.0561431883572716 11.428571428571423 -3.0622764849271062" /></g></g><g><g><path d="M 125.71428571428565,455.2819265609619 c 10.932402822313149,6.311825712351924 24.911612088435227,2.5661078786688503 31.223437800787146 -8.366294943644295c 2.0061332965698386,-3.4747247964146055 3.0622764849271142,-7.416304835431738 3.0622764849271196 -11.428571428571416" /></g><path d="M 125.71428571428564,494.87165930539334 l 68.57142857142854,-39.589732744431444 " /><g><path d="M 194.28571428571416,494.8716593053934 c -10.93240282231315,-6.311825712351923 -24.91161208843523,-2.5661078786688485 -31.22343780078715 8.366294943644299c -2.006133296569838,3.474724796414606 -3.062276484927114,7.416304835431739 -3.0622764849271187 11.428571428571418" /></g></g><g><g><path d="M 159.9999999999999,593.845991166472 c 6.217248937900877e-15,-12.623651424703844 -10.233491432438989,-22.857142857142854 -22.857142857142833 -22.857142857142858c -4.01226659313968,2.220446049250313e-16 -7.953846632156814,1.0561431883572712 -11.428571428571423 3.0622764849271054" /></g><path d="M 194.28571428571416,574.0511247942563 l -68.57142857142851,-39.5897327444315 " /><g><path d="M 159.99999999999994,514.6665256776091 c -5.329070518200751e-15,12.623651424703844 10.233491432438989,22.85714285714285 22.857142857142833 22.857142857142854c 4.01226659313968,-4.440892098500626e-16 7.953846632156814,-1.0561431883572716 11.428571428571423 -3.0622764849271062" /></g></g><g><g><path d="M 194.2857142857142,613.6408575386877 c -10.93240282231315,6.311825712351922 -14.678120655996231,20.291034978474 -8.366294943644311 31.22343780078715c 2.0061332965698417,3.4747247964146046 4.8915701472297,6.360161647074466 8.366294943644302 8.36629494364431" /></g><path d="M 159.99999999999991,593.845991166472 v 79.17946548886292 " /><g><path d="M 125.71428571428565,653.2305902831192 c 10.93240282231315,-6.311825712351924 14.67812065599623,-20.291034978474002 8.366294943644307 -31.22343780078715c -2.006133296569842,-3.474724796414604 -4.891570147229701,-6.360161647074465 -8.366294943644304 -8.366294943644307" /></g></g><g><g><path d="M 159.9999999999999,752.2049221441979 c 6.217248937900877e-15,-12.623651424703844 -10.233491432438989,-22.857142857142854 -22.857142857142833 -22.857142857142858c -4.01226659313968,2.220446049250313e-16 -7.953846632156814,1.0561431883572712 -11.428571428571423 3.0622764849271054" /></g><path d="M 194.28571428571416,732.4100557719822 l -68.57142857142851,-39.5897327444315 " /><g><path d="M 159.99999999999994,673.025456655335 c -5.329070518200751e-15,12.623651424703844 10.233491432438989,22.85714285714285 22.857142857142833 22.857142857142854c 4.01226659313968,-4.440892098500626e-16 7.953846632156814,-1.0561431883572716 11.428571428571423 -3.0622764849271062" /></g></g><g><g><path d="M 125.71428571428565,771.9997885164137 c 10.932402822313149,6.311825712351924 24.911612088435227,2.5661078786688503 31.223437800787146 -8.366294943644295c 2.0061332965698386,-3.4747247964146055 3.0622764849271142,-7.416304835431738 3.0622764849271196 -11.428571428571416" /></g><path d="M 125.71428571428564,811.589521260845 l 68.57142857142854,-39.589732744431444 " /><g><path d="M 194.28571428571416,811.589521260845 c -10.93240282231315,-6.311825712351923 -24.91161208843523,-2.5661078786688485 -31.22343780078715 8.366294943644299c -2.006133296569838,3.474724796414606 -3.062276484927114,7.416304835431739 -3.0622764849271187 11.428571428571418" /></g></g><g><g><path d="M 194.2857142857142,851.1792540052764 c -10.93240282231315,6.311825712351922 -14.678120655996231,20.291034978474 -8.366294943644311 31.22343780078715c 2.0061332965698417,3.4747247964146046 4.8915701472297,6.360161647074466 8.366294943644302 8.36629494364431" /></g><path d="M 159.99999999999991,831.3843876330608 v 79.17946548886292 " /><g><path d="M 125.71428571428565,890.768986749708 c 10.93240282231315,-6.311825712351924 14.67812065599623,-20.291034978474002 8.366294943644307 -31.22343780078715c -2.006133296569842,-3.474724796414604 -4.891570147229701,-6.360161647074465 -8.366294943644304 -8.366294943644307" /></g></g><g><g><path d="M 57.14285714285711,19.794866372215708 c 10.932402822313149,6.311825712351924 24.911612088435227,2.5661078786688503 31.223437800787146 -8.366294943644295c 2.0061332965698386,-3.4747247964146055 3.0622764849271142,-7.416304835431738 3.0622764849271196 -11.428571428571416" /></g><path d="M 57.1428571428571,59.384599116647166 l 68.57142857142854,-39.589732744431444 " /><g><path d="M 125.71428571428564,59.38459911664719 c -10.93240282231315,-6.311825712351923 -24.91161208843523,-2.5661078786688485 -31.22343780078715 8.366294943644299c -2.006133296569838,3.474724796414606 -3.062276484927114,7.416304835431739 -3.0622764849271187 11.428571428571418" /></g></g><g><g><path d="M 91.42857142857135,158.3589309777259 c 6.217248937900877e-15,-12.623651424703844 -10.233491432438989,-22.857142857142854 -22.857142857142833 -22.857142857142858c -4.01226659313968,2.220446049250313e-16 -7.953846632156814,1.0561431883572712 -11.428571428571423 3.0622764849271054" /></g><path d="M 125.71428571428564,138.5640646055102 l -68.57142857142851,-39.5897327444315 " /><g><path d="M 91.4285714285714,79.17946548886299 c -5.329070518200751e-15,12.623651424703844 10.233491432438989,22.85714285714285 22.857142857142833 22.857142857142854c 4.01226659313968,-4.440892098500626e-16 7.953846632156814,-1.0561431883572716 11.428571428571423 -3.0622764849271062" /></g></g><g><g><path d="M 91.42857142857135,237.53839646658878 c 6.217248937900877e-15,-12.623651424703844 -10.233491432438989,-22.857142857142854 -22.857142857142833 -22.857142857142858c -4.01226659313968,2.220446049250313e-16 -7.953846632156814,1.0561431883572712 -11.428571428571423 3.0622764849271054" /></g><path d="M 125.71428571428564,217.74353009437309 l -68.57142857142851,-39.5897327444315 " /><g><path d="M 91.4285714285714,158.3589309777259 c -5.329070518200751e-15,12.623651424703844 10.233491432438989,22.85714285714285 22.857142857142833 22.857142857142854c 4.01226659313968,-4.440892098500626e-16 7.953846632156814,-1.0561431883572716 11.428571428571423 -3.0622764849271062" /></g></g><g><g><path d="M 125.71428571428564,257.3332628388046 c -10.93240282231315,6.311825712351922 -14.678120655996231,20.291034978474 -8.366294943644311 31.22343780078715c 2.0061332965698417,3.4747247964146046 4.8915701472297,6.360161647074466 8.366294943644302 8.36629494364431" /></g><path d="M 91.42857142857137,237.5383964665889 v 79.17946548886292 " /><g><path d="M 57.1428571428571,296.92299558323606 c 10.93240282231315,-6.311825712351924 14.67812065599623,-20.291034978474002 8.366294943644307 -31.22343780078715c -2.006133296569842,-3.474724796414604 -4.891570147229701,-6.360161647074465 -8.366294943644304 -8.366294943644307" /></g></g><g><g><path d="M 57.14285714285711,336.5127283276675 c 10.932402822313149,6.311825712351924 24.911612088435227,2.5661078786688503 31.223437800787146 -8.366294943644295c 2.0061332965698386,-3.4747247964146055 3.0622764849271142,-7.416304835431738 3.0622764849271196 -11.428571428571416" /></g><path d="M 57.1428571428571,376.10246107209895 l 68.57142857142854,-39.589732744431444 " /><g><path d="M 125.71428571428564,376.10246107209895 c -10.93240282231315,-6.311825712351923 -24.91161208843523,-2.5661078786688485 -31.22343780078715 8.366294943644299c -2.006133296569838,3.474724796414606 -3.062276484927114,7.416304835431739 -3.0622764849271187 11.428571428571418" /></g></g><g><g><path d="M 57.14285714285711,415.69219381653045 c 10.932402822313149,6.311825712351924 24.911612088435227,2.5661078786688503 31.223437800787146 -8.366294943644295c 2.0061332965698386,-3.4747247964146055 3.0622764849271142,-7.416304835431738 3.0622764849271196 -11.428571428571416" /></g><path d="M 57.1428571428571,455.2819265609619 l 68.57142857142854,-39.589732744431444 " /><g><path d="M 125.71428571428564,455.2819265609619 c -10.93240282231315,-6.311825712351923 -24.91161208843523,-2.5661078786688485 -31.22343780078715 8.366294943644299c -2.006133296569838,3.474724796414606 -3.062276484927114,7.416304835431739 -3.0622764849271187 11.428571428571418" /></g></g><g><g><path d="M 91.42857142857135,554.2562584220406 c 6.217248937900877e-15,-12.623651424703844 -10.233491432438989,-22.857142857142854 -22.857142857142833 -22.857142857142858c -4.01226659313968,2.220446049250313e-16 -7.953846632156814,1.0561431883572712 -11.428571428571423 3.0622764849271054" /></g><path d="M 125.71428571428564,534.4613920498249 l -68.57142857142851,-39.5897327444315 " /><g><path d="M 91.4285714285714,475.07679293317767 c -5.329070518200751e-15,12.623651424703844 10.233491432438989,22.85714285714285 22.857142857142833 22.857142857142854c 4.01226659313968,-4.440892098500626e-16 7.953846632156814,-1.0561431883572716 11.428571428571423 -3.0622764849271062" /></g></g><g><g><path d="M 57.14285714285711,574.0511247942563 c 10.932402822313149,6.311825712351924 24.911612088435227,2.5661078786688503 31.223437800787146 -8.366294943644295c 2.0061332965698386,-3.4747247964146055 3.0622764849271142,-7.416304835431738 3.0622764849271196 -11.428571428571416" /></g><path d="M 57.1428571428571,613.6408575386877 l 68.57142857142854,-39.589732744431444 " /><g><path d="M 125.71428571428564,613.6408575386877 c -10.93240282231315,-6.311825712351923 -24.91161208843523,-2.5661078786688485 -31.22343780078715 8.366294943644299c -2.006133296569838,3.474724796414606 -3.062276484927114,7.416304835431739 -3.0622764849271187 11.428571428571418" /></g></g><g><g><path d="M 91.42857142857135,712.6151893997663 c 6.217248937900877e-15,-12.623651424703844 -10.233491432438989,-22.857142857142854 -22.857142857142833 -22.857142857142858c -4.01226659313968,2.220446049250313e-16 -7.953846632156814,1.0561431883572712 -11.428571428571423 3.0622764849271054" /></g><path d="M 125.71428571428564,692.8203230275507 l -68.57142857142851,-39.5897327444315 " /><g><path d="M 91.4285714285714,633.4357239109034 c -5.329070518200751e-15,12.623651424703844 10.233491432438989,22.85714285714285 22.857142857142833 22.857142857142854c 4.01226659313968,-4.440892098500626e-16 7.953846632156814,-1.0561431883572716 11.428571428571423 -3.0622764849271062" /></g></g><g><g><path d="M 57.14285714285711,732.4100557719821 c 10.932402822313149,6.311825712351924 24.911612088435227,2.5661078786688503 31.223437800787146 -8.366294943644295c 2.0061332965698386,-3.4747247964146055 3.0622764849271142,-7.416304835431738 3.0622764849271196 -11.428571428571416" /></g><path d="M 57.1428571428571,771.9997885164134 l 68.57142857142854,-39.589732744431444 " /><g><path d="M 125.71428571428564,771.9997885164134 c -10.93240282231315,-6.311825712351923 -24.91161208843523,-2.5661078786688485 -31.22343780078715 8.366294943644299c -2.006133296569838,3.474724796414606 -3.062276484927114,7.416304835431739 -3.0622764849271187 11.428571428571418" /></g></g><g><g><path d="M 125.71428571428564,811.589521260845 c -10.93240282231315,6.311825712351922 -14.678120655996231,20.291034978474 -8.366294943644311 31.22343780078715c 2.0061332965698417,3.4747247964146046 4.8915701472297,6.360161647074466 8.366294943644302 8.36629494364431" /></g><path d="M 91.42857142857137,791.7946548886293 v 79.17946548886292 " /><g><path d="M 57.1428571428571,851.1792540052766 c 10.93240282231315,-6.311825712351924 14.67812065599623,-20.291034978474002 8.366294943644307 -31.22343780078715c -2.006133296569842,-3.474724796414604 -4.891570147229701,-6.360161647074465 -8.366294943644304 -8.366294943644307" /></g></g><g><g><path d="M 57.14285714285711,890.768986749708 c 10.932402822313149,6.311825712351924 24.911612088435227,2.5661078786688503 31.223437800787146 -8.366294943644295c 2.0061332965698386,-3.4747247964146055 3.0622764849271142,-7.416304835431738 3.0622764849271196 -11.428571428571416" /></g><path d="M 57.1428571428571,930.3587194941395 l 68.57142857142854,-39.589732744431444 " /><g><path d="M 125.71428571428564,930.3587194941393 c -10.93240282231315,-6.311825712351923 -24.91161208843523,-2.5661078786688485 -31.22343780078715 8.366294943644299c -2.006133296569838,3.474724796414606 -3.062276484927114,7.416304835431739 -3.0622764849271187 11.428571428571418" /></g></g><g><g><path d="M -11.42857142857143,-19.794866372215623 c 10.932402822313149,6.311825712351924 24.911612088435227,2.5661078786688503 31.223437800787146 -8.366294943644295c 2.0061332965698386,-3.4747247964146055 3.0622764849271142,-7.416304835431738 3.0622764849271196 -11.428571428571416" /></g><path d="M -11.428571428571438,19.794866372215836 l 68.57142857142854,-39.589732744431444 " /><g><path d="M 57.14285714285709,19.79486637221585 c -10.93240282231315,-6.311825712351923 -24.91161208843523,-2.5661078786688485 -31.22343780078715 8.366294943644299c -2.006133296569838,3.474724796414606 -3.062276484927114,7.416304835431739 -3.0622764849271187 11.428571428571418" /></g></g><g><g><path d="M 57.1428571428571,59.38459911664727 c -10.93240282231315,6.311825712351922 -14.678120655996231,20.291034978474 -8.366294943644311 31.22343780078715c 2.0061332965698417,3.4747247964146046 4.8915701472297,6.360161647074466 8.366294943644302 8.36629494364431" /></g><path d="M 22.857142857142833,39.589732744431544 v 79.17946548886292 " /><g><path d="M -11.428571428571436,98.97433186107872 c 10.93240282231315,-6.311825712351924 14.67812065599623,-20.291034978474002 8.366294943644307 -31.22343780078715c -2.006133296569842,-3.474724796414604 -4.891570147229701,-6.360161647074465 -8.366294943644304 -8.366294943644307" /></g></g><g><g><path d="M -11.42857142857143,138.56406460551014 c 10.932402822313149,6.311825712351924 24.911612088435227,2.5661078786688503 31.223437800787146 -8.366294943644295c 2.0061332965698386,-3.4747247964146055 3.0622764849271142,-7.416304835431738 3.0622764849271196 -11.428571428571416" /></g><path d="M -11.428571428571438,178.1537973499416 l 68.57142857142854,-39.589732744431444 " /><g><path d="M 57.14285714285709,178.15379734994164 c -10.93240282231315,-6.311825712351923 -24.91161208843523,-2.5661078786688485 -31.22343780078715 8.366294943644299c -2.006133296569838,3.474724796414606 -3.062276484927114,7.416304835431739 -3.0622764849271187 11.428571428571418" /></g></g><g><g><path d="M 22.85714285714281,277.12812921102034 c 6.217248937900877e-15,-12.623651424703844 -10.233491432438989,-22.857142857142854 -22.857142857142833 -22.857142857142858c -4.01226659313968,2.220446049250313e-16 -7.953846632156814,1.0561431883572712 -11.428571428571423 3.0622764849271054" /></g><path d="M 57.14285714285709,257.33326283880467 l -68.57142857142851,-39.5897327444315 " /><g><path d="M 22.857142857142854,197.94866372215745 c -5.329070518200751e-15,12.623651424703844 10.233491432438989,22.85714285714285 22.857142857142833 22.857142857142854c 4.01226659313968,-4.440892098500626e-16 7.953846632156814,-1.0561431883572716 11.428571428571423 -3.0622764849271062" /></g></g><g><g><path d="M 57.1428571428571,296.92299558323606 c -10.93240282231315,6.311825712351922 -14.678120655996231,20.291034978474 -8.366294943644311 31.22343780078715c 2.0061332965698417,3.4747247964146046 4.8915701472297,6.360161647074466 8.366294943644302 8.36629494364431" /></g><path d="M 22.857142857142833,277.12812921102034 v 79.17946548886292 " /><g><path d="M -11.428571428571436,336.5127283276675 c 10.93240282231315,-6.311825712351924 14.67812065599623,-20.291034978474002 8.366294943644307 -31.22343780078715c -2.006133296569842,-3.474724796414604 -4.891570147229701,-6.360161647074465 -8.366294943644304 -8.366294943644307" /></g></g><g><g><path d="M -11.42857142857143,376.10246107209895 c 10.932402822313149,6.311825712351924 24.911612088435227,2.5661078786688503 31.223437800787146 -8.366294943644295c 2.0061332965698386,-3.4747247964146055 3.0622764849271142,-7.416304835431738 3.0622764849271196 -11.428571428571416" /></g><path d="M -11.428571428571438,415.6921938165304 l 68.57142857142854,-39.589732744431444 " /><g><path d="M 57.14285714285709,415.6921938165304 c -10.93240282231315,-6.311825712351923 -24.91161208843523,-2.5661078786688485 -31.22343780078715 8.366294943644299c -2.006133296569838,3.474724796414606 -3.062276484927114,7.416304835431739 -3.0622764849271187 11.428571428571418" /></g></g><g><g><path d="M -11.42857142857143,455.2819265609619 c 10.932402822313149,6.311825712351924 24.911612088435227,2.5661078786688503 31.223437800787146 -8.366294943644295c 2.0061332965698386,-3.4747247964146055 3.0622764849271142,-7.416304835431738 3.0622764849271196 -11.428571428571416" /></g><path d="M -11.428571428571438,494.87165930539334 l 68.57142857142854,-39.589732744431444 " /><g><path d="M 57.14285714285709,494.8716593053934 c -10.93240282231315,-6.311825712351923 -24.91161208843523,-2.5661078786688485 -31.22343780078715 8.366294943644299c -2.006133296569838,3.474724796414606 -3.062276484927114,7.416304835431739 -3.0622764849271187 11.428571428571418" /></g></g><g><g><path d="M 57.1428571428571,534.4613920498248 c -10.93240282231315,6.311825712351922 -14.678120655996231,20.291034978474 -8.366294943644311 31.22343780078715c 2.0061332965698417,3.4747247964146046 4.8915701472297,6.360161647074466 8.366294943644302 8.36629494364431" /></g><path d="M 22.857142857142833,514.6665256776091 v 79.17946548886292 " /><g><path d="M -11.428571428571436,574.0511247942563 c 10.93240282231315,-6.311825712351924 14.67812065599623,-20.291034978474002 8.366294943644307 -31.22343780078715c -2.006133296569842,-3.474724796414604 -4.891570147229701,-6.360161647074465 -8.366294943644304 -8.366294943644307" /></g></g><g><g><path d="M 22.85714285714281,673.0254566553349 c 6.217248937900877e-15,-12.623651424703844 -10.233491432438989,-22.857142857142854 -22.857142857142833 -22.857142857142858c -4.01226659313968,2.220446049250313e-16 -7.953846632156814,1.0561431883572712 -11.428571428571423 3.0622764849271054" /></g><path d="M 57.14285714285709,653.2305902831192 l -68.57142857142851,-39.5897327444315 " /><g><path d="M 22.857142857142854,593.845991166472 c -5.329070518200751e-15,12.623651424703844 10.233491432438989,22.85714285714285 22.857142857142833 22.857142857142854c 4.01226659313968,-4.440892098500626e-16 7.953846632156814,-1.0561431883572716 11.428571428571423 -3.0622764849271062" /></g></g><g><g><path d="M 57.1428571428571,692.8203230275507 c -10.93240282231315,6.311825712351922 -14.678120655996231,20.291034978474 -8.366294943644311 31.22343780078715c 2.0061332965698417,3.4747247964146046 4.8915701472297,6.360161647074466 8.366294943644302 8.36629494364431" /></g><path d="M 22.857142857142833,673.025456655335 v 79.17946548886292 " /><g><path d="M -11.428571428571436,732.4100557719822 c 10.93240282231315,-6.311825712351924 14.67812065599623,-20.291034978474002 8.366294943644307 -31.22343780078715c -2.006133296569842,-3.474724796414604 -4.891570147229701,-6.360161647074465 -8.366294943644304 -8.366294943644307" /></g></g><g><g><path d="M 57.1428571428571,771.9997885164136 c -10.93240282231315,6.311825712351922 -14.678120655996231,20.291034978474 -8.366294943644311 31.22343780078715c 2.0061332965698417,3.4747247964146046 4.8915701472297,6.360161647074466 8.366294943644302 8.36629494364431" /></g><path d="M 22.857142857142833,752.2049221441979 v 79.17946548886292 " /><g><path d="M -11.428571428571436,811.5895212608451 c 10.93240282231315,-6.311825712351924 14.67812065599623,-20.291034978474002 8.366294943644307 -31.22343780078715c -2.006133296569842,-3.474724796414604 -4.891570147229701,-6.360161647074465 -8.366294943644304 -8.366294943644307" /></g></g><g><g><path d="M 22.85714285714281,910.5638531219237 c 6.217248937900877e-15,-12.623651424703844 -10.233491432438989,-22.857142857142854 -22.857142857142833 -22.857142857142858c -4.01226659313968,2.220446049250313e-16 -7.953846632156814,1.0561431883572712 -11.428571428571423 3.0622764849271054" /></g><path d="M 57.14285714285709,890.768986749708 l -68.57142857142851,-39.5897327444315 " /><g><path d="M 22.857142857142854,831.3843876330608 c -5.329070518200751e-15,12.623651424703844 10.233491432438989,22.85714285714285 22.857142857142833 22.857142857142854c 4.01226659313968,-4.440892098500626e-16 7.953846632156814,-1.0561431883572716 11.428571428571423 -3.0622764849271062" /></g></g></g></g></g></g></svg>